G04 #@! TF.FileFunction,Soldermask,Top*
%FSLAX46Y46*%
G04 Gerber Fmt 4.6, Leading zero omitted, Abs format (unit mm)*
G04 Created by KiCad (PCBNEW 4.0.1-stable) date Sonntag, 27. Dezember 2015 21:34:01*
%MOMM*%
G01*
G04 APERTURE LIST*
%ADD10C,0.100000*%
%ADD11R,1.300000X1.300000*%
%ADD12C,1.300000*%
%ADD13C,1.699260*%
%ADD14R,1.699260X1.699260*%
%ADD15R,2.000000X2.000000*%
%ADD16C,2.000000*%
%ADD17C,2.032000*%
%ADD18R,2.235200X2.235200*%
%ADD19R,2.032000X1.727200*%
%ADD20O,2.032000X1.727200*%
%ADD21R,1.727200X1.727200*%
%ADD22O,1.727200X1.727200*%
%ADD23C,1.998980*%
%ADD24O,1.600000X1.600000*%
%ADD25C,4.064000*%
G04 APERTURE END LIST*
D10*
X143510000Y-130810000D02*
X143510000Y-97790000D01*
X203200000Y-130810000D02*
X143510000Y-130810000D01*
X203200000Y-97790000D02*
X203200000Y-130810000D01*
X143510000Y-97790000D02*
X203200000Y-97790000D01*
D11*
X167640000Y-120650000D03*
D12*
X167640000Y-123150000D03*
D13*
X156207460Y-100329480D03*
D14*
X156207460Y-110489480D03*
D13*
X156207460Y-113029480D03*
D14*
X156207460Y-123189480D03*
D15*
X181610000Y-116840000D03*
D16*
X184150000Y-116840000D03*
D17*
X149225000Y-120650000D03*
X149225000Y-107950000D03*
D18*
X177800000Y-107950000D03*
X190500000Y-110490000D03*
D19*
X194310000Y-104140000D03*
D20*
X194310000Y-106680000D03*
X194310000Y-109220000D03*
X194310000Y-111760000D03*
X194310000Y-114300000D03*
X194310000Y-116840000D03*
X194310000Y-119380000D03*
X194310000Y-121920000D03*
D21*
X198120000Y-106680000D03*
D22*
X200660000Y-106680000D03*
X198120000Y-109220000D03*
X200660000Y-109220000D03*
X198120000Y-111760000D03*
X200660000Y-111760000D03*
X198120000Y-114300000D03*
X200660000Y-114300000D03*
X198120000Y-116840000D03*
X200660000Y-116840000D03*
D23*
X158750000Y-102870000D03*
X168910000Y-102870000D03*
X168910000Y-105410000D03*
X158750000Y-105410000D03*
X168910000Y-100330000D03*
X158750000Y-100330000D03*
X176530000Y-125730000D03*
X166370000Y-125730000D03*
X186690000Y-105410000D03*
X176530000Y-105410000D03*
X176530000Y-102870000D03*
X186690000Y-102870000D03*
X176530000Y-123190000D03*
X186690000Y-123190000D03*
X189230000Y-125730000D03*
X179070000Y-125730000D03*
X176530000Y-120650000D03*
X186690000Y-120650000D03*
X176530000Y-128270000D03*
X166370000Y-128270000D03*
X186690000Y-107950000D03*
X186690000Y-118110000D03*
D24*
X177800000Y-110490000D03*
X175260000Y-110490000D03*
X172720000Y-110490000D03*
X170180000Y-110490000D03*
X167640000Y-110490000D03*
X165100000Y-110490000D03*
X162560000Y-110490000D03*
X162560000Y-118110000D03*
X165100000Y-118110000D03*
X167640000Y-118110000D03*
X170180000Y-118110000D03*
X172720000Y-118110000D03*
X175260000Y-118110000D03*
X177800000Y-118110000D03*
D11*
X172720000Y-102870000D03*
D12*
X172720000Y-107870000D03*
D25*
X199390000Y-101600000D03*
X199390000Y-127000000D03*
X147320000Y-127000000D03*
X147320000Y-101600000D03*
M02*
