M48
;DRILL file {KiCad 4.0.1-stable} date Sonntag, 27. Dezember 2015 21:34:09
;FORMAT={-:-/ absolute / inch / decimal}
FMAT,2
INCH,TZ
T1C0.028
T2C0.030
T3C0.031
T4C0.039
T5C0.040
T6C0.120
%
G90
G05
M72
T1
X6.1499Y-3.95
X6.1499Y-4.35
X6.1499Y-4.45
X6.1499Y-4.85
T2
X5.875Y-4.25
X5.875Y-4.75
T3
X6.4Y-4.35
X6.4Y-4.65
X6.5Y-4.35
X6.5Y-4.65
X6.6Y-4.35
X6.6Y-4.65
X6.6Y-4.75
X6.6Y-4.8484
X6.7Y-4.35
X6.7Y-4.65
X6.8Y-4.05
X6.8Y-4.2469
X6.8Y-4.35
X6.8Y-4.65
X6.9Y-4.35
X6.9Y-4.65
X7.Y-4.35
X7.Y-4.65
T4
X6.25Y-3.95
X6.25Y-4.05
X6.25Y-4.15
X6.55Y-4.95
X6.55Y-5.05
X6.65Y-3.95
X6.65Y-4.05
X6.65Y-4.15
X6.95Y-4.05
X6.95Y-4.15
X6.95Y-4.75
X6.95Y-4.85
X6.95Y-4.95
X6.95Y-5.05
X7.05Y-4.95
X7.15Y-4.6
X7.25Y-4.6
X7.35Y-4.05
X7.35Y-4.15
X7.35Y-4.25
X7.35Y-4.65
X7.35Y-4.75
X7.35Y-4.85
X7.45Y-4.95
T5
X7.Y-4.25
X7.5Y-4.35
X7.65Y-4.1
X7.65Y-4.2
X7.65Y-4.3
X7.65Y-4.4
X7.65Y-4.5
X7.65Y-4.6
X7.65Y-4.7
X7.65Y-4.8
X7.8Y-4.2
X7.8Y-4.3
X7.8Y-4.4
X7.8Y-4.5
X7.8Y-4.6
X7.9Y-4.2
X7.9Y-4.3
X7.9Y-4.4
X7.9Y-4.5
X7.9Y-4.6
T6
X5.8Y-4.
X5.8Y-5.
X7.85Y-4.
X7.85Y-5.
T0
M30
