M48
;DRILL file {KiCad 4.0.1-stable} date Sonntag, 31. Januar 2016 13:18:44
;FORMAT={3:3/ absolute / metric / suppress leading zeros}
FMAT,2
METRIC,TZ
T1C0.400
T2C0.800
T3C1.000
T4C3.048
%
G90
G05
M71
T1
X19320Y16970
X19320Y15192
X21860Y16970
X23638Y14430
X23638Y9096
X23638Y7318
X24400Y12906
X29480Y11890
X30750Y22558
X32528Y26368
X39386Y22050
X40910Y20526
X41164Y13668
X42434Y17478
T2
X5604Y35004
X5604Y22304
X5604Y16462
X5604Y3762
X23972Y25098
X26686Y21034
X26686Y18494
X26686Y15954
X26686Y13414
X26686Y10874
X26686Y8334
X26686Y5794
X26940Y29924
X28972Y25098
X29440Y29924
X32655Y29924
X34306Y21034
X34306Y18494
X34306Y15954
X34306Y13414
X34306Y10874
X34306Y8334
X34306Y5794
X35155Y29924
T3
X11957Y15446
X11957Y5286
X12211Y34750
X12211Y24590
X13478Y21034
X13478Y18240
X14745Y15446
X14745Y5286
X14999Y34750
X14999Y24590
X17796Y13414
X17796Y3254
X18558Y34496
X18558Y24336
X20590Y13414
X20590Y3254
X21352Y34496
X21352Y24336
X23638Y21034
X23638Y18240
X24146Y34496
X34306Y34496
X36846Y8334
X36846Y5540
X37100Y11128
X38116Y34496
X38116Y24336
X38116Y20272
X38116Y17478
X38116Y14684
X41672Y33226
X41672Y23066
X44466Y33226
X44466Y23066
X47006Y8334
X47006Y5540
X47260Y11128
X47768Y33226
X47768Y29416
X48276Y20272
X48276Y17478
X48276Y14684
X51578Y24590
X51578Y22050
X51578Y19510
X51578Y16970
X51578Y14430
X51578Y11890
X51578Y9350
X51578Y6810
X56912Y21542
X56912Y19002
X56912Y16462
X56912Y13922
X56912Y11382
X59452Y21542
X59452Y19002
X59452Y16462
X59452Y13922
X59452Y11382
T4
X5000Y29000
X5000Y9000
X58000Y34000
X58000Y4000
T0
M30
