G04 #@! TF.FileFunction,Copper,L1,Top,Signal*
%FSLAX46Y46*%
G04 Gerber Fmt 4.6, Leading zero omitted, Abs format (unit mm)*
G04 Created by KiCad (PCBNEW 4.0.1-stable) date Sonntag, 31. Januar 2016 13:18:43*
%MOMM*%
G01*
G04 APERTURE LIST*
%ADD10C,0.100000*%
%ADD11C,1.998980*%
%ADD12R,1.998980X1.998980*%
%ADD13C,4.064000*%
%ADD14R,1.300000X1.300000*%
%ADD15C,1.300000*%
%ADD16O,1.600000X1.600000*%
%ADD17R,1.727200X1.727200*%
%ADD18O,1.727200X1.727200*%
%ADD19C,1.524000*%
%ADD20R,2.032000X1.727200*%
%ADD21O,2.032000X1.727200*%
%ADD22R,2.235200X2.235200*%
%ADD23C,0.600000*%
%ADD24C,0.500000*%
%ADD25C,0.250000*%
G04 APERTURE END LIST*
D10*
X0Y0D02*
X0Y1000000D01*
X62000000Y0D02*
X0Y0D01*
X62000000Y38000000D02*
X62000000Y0D01*
X0Y38000000D02*
X62000000Y38000000D01*
X0Y1000000D02*
X0Y38000000D01*
D11*
X14999460Y34750000D03*
D12*
X14999460Y24590000D03*
D11*
X12210540Y24590000D03*
D12*
X12210540Y34750000D03*
D11*
X14745460Y15446000D03*
D12*
X14745460Y5286000D03*
D11*
X11956540Y5286000D03*
D12*
X11956540Y15446000D03*
D13*
X5000000Y29000000D03*
X5000000Y9000000D03*
X58000000Y4000000D03*
X58000000Y34000000D03*
D14*
X28972000Y25098000D03*
D15*
X23972000Y25098000D03*
D16*
X26686000Y21034000D03*
X26686000Y18494000D03*
X26686000Y15954000D03*
X26686000Y13414000D03*
X26686000Y10874000D03*
X26686000Y8334000D03*
X26686000Y5794000D03*
X34306000Y5794000D03*
X34306000Y8334000D03*
X34306000Y10874000D03*
X34306000Y13414000D03*
X34306000Y15954000D03*
X34306000Y18494000D03*
X34306000Y21034000D03*
D11*
X41672000Y23066000D03*
X41672000Y33226000D03*
X47006000Y8334000D03*
X36846000Y8334000D03*
X47260000Y11128000D03*
X37100000Y11128000D03*
X36846000Y5540000D03*
X47006000Y5540000D03*
X24146000Y34496000D03*
X34306000Y34496000D03*
X20590000Y3254000D03*
X20590000Y13414000D03*
X44466000Y23066000D03*
X44466000Y33226000D03*
X38116000Y17478000D03*
X48276000Y17478000D03*
X48276000Y14684000D03*
X38116000Y14684000D03*
X38116000Y20272000D03*
X48276000Y20272000D03*
X13478000Y18240000D03*
X23638000Y18240000D03*
X17796000Y13414000D03*
X17796000Y3254000D03*
X38116000Y24336000D03*
X38116000Y34496000D03*
X21352000Y24336000D03*
X21352000Y34496000D03*
X13478000Y21034000D03*
X23638000Y21034000D03*
X18558000Y34496000D03*
X18558000Y24336000D03*
D17*
X56912000Y21542000D03*
D18*
X59452000Y21542000D03*
X56912000Y19002000D03*
X59452000Y19002000D03*
X56912000Y16462000D03*
X59452000Y16462000D03*
X56912000Y13922000D03*
X59452000Y13922000D03*
X56912000Y11382000D03*
X59452000Y11382000D03*
D14*
X26940000Y29924000D03*
D15*
X29440000Y29924000D03*
D14*
X32655000Y29924000D03*
D15*
X35155000Y29924000D03*
D19*
X5604000Y22304000D03*
X5604000Y35004000D03*
X5604000Y3762000D03*
X5604000Y16462000D03*
D20*
X51578000Y24590000D03*
D21*
X51578000Y22050000D03*
X51578000Y19510000D03*
X51578000Y16970000D03*
X51578000Y14430000D03*
X51578000Y11890000D03*
X51578000Y9350000D03*
X51578000Y6810000D03*
D22*
X47768000Y33226000D03*
X47768000Y29416000D03*
D23*
X32528000Y26368000D03*
X30750000Y22558000D03*
X29480000Y11890000D03*
X19320000Y16970000D03*
X19320000Y15192000D03*
X41164000Y13668000D03*
X40910000Y20526000D03*
X39386000Y22050000D03*
X42434000Y17478000D03*
X24400000Y12906000D03*
X21860000Y16970000D03*
X23638000Y14430000D03*
X23638000Y9096000D03*
X23638000Y7318000D03*
D24*
X36338000Y5032000D02*
X36338000Y4016000D01*
X28464000Y14176000D02*
X28464000Y6556000D01*
X28464000Y6556000D02*
X31004000Y4016000D01*
X31004000Y4016000D02*
X36338000Y4016000D01*
X28464000Y14176000D02*
X26686000Y15954000D01*
X36338000Y5032000D02*
X36846000Y5540000D01*
D25*
X38116000Y20272000D02*
X38878000Y20272000D01*
X38878000Y20272000D02*
X41672000Y23066000D01*
X41672000Y23066000D02*
X44466000Y23066000D01*
X35830000Y26368000D02*
X37862000Y24336000D01*
X32528000Y26368000D02*
X35830000Y26368000D01*
X37862000Y24336000D02*
X38116000Y24336000D01*
X23972000Y25098000D02*
X24226000Y34416000D01*
X24226000Y34416000D02*
X24146000Y34496000D01*
X26686000Y15954000D02*
X25162000Y17478000D01*
X23972000Y23748000D02*
X23972000Y25098000D01*
X25162000Y22558000D02*
X23972000Y23748000D01*
X25162000Y17478000D02*
X25162000Y22558000D01*
X26686000Y15954000D02*
X17542000Y15954000D01*
X15256000Y18240000D02*
X13478000Y18240000D01*
X17542000Y15954000D02*
X15256000Y18240000D01*
X13478000Y21034000D02*
X13478000Y18240000D01*
X37100000Y34496000D02*
X38116000Y34496000D01*
X32655000Y29924000D02*
X32655000Y30051000D01*
X32655000Y30051000D02*
X37100000Y34496000D01*
X30750000Y27892000D02*
X32655000Y29797000D01*
X30750000Y22558000D02*
X30750000Y27892000D01*
X32655000Y29797000D02*
X32655000Y29924000D01*
X26686000Y18494000D02*
X27448000Y18494000D01*
X27448000Y18494000D02*
X29480000Y16462000D01*
X29480000Y16462000D02*
X29480000Y11890000D01*
X26686000Y21034000D02*
X26686000Y29670000D01*
X26686000Y29670000D02*
X26940000Y29924000D01*
X34306000Y34496000D02*
X31512000Y34496000D01*
X31512000Y34496000D02*
X26940000Y29924000D01*
X34306000Y5794000D02*
X31512000Y5794000D01*
X28210000Y21034000D02*
X26686000Y21034000D01*
X30496000Y19002000D02*
X28210000Y21034000D01*
X30496000Y7064000D02*
X30496000Y19002000D01*
X31512000Y5794000D02*
X30496000Y7064000D01*
X14999460Y34750520D02*
X12211580Y34750520D01*
X12211580Y34750520D02*
X12210540Y34749480D01*
X5604000Y35004000D02*
X11956020Y35004000D01*
X11956020Y35004000D02*
X12209500Y34750520D01*
X12209500Y34750520D02*
X18303480Y34750520D01*
X18303480Y34750520D02*
X18558000Y34496000D01*
X18558000Y34496000D02*
X21352000Y34496000D01*
X26686000Y13414000D02*
X24908000Y15192000D01*
X14999460Y21290540D02*
X14999460Y24590520D01*
X19320000Y16970000D02*
X14999460Y21290540D01*
X24908000Y15192000D02*
X19320000Y15192000D01*
X12210540Y24589480D02*
X14998420Y24589480D01*
X14998420Y24589480D02*
X14999460Y24590520D01*
X5604000Y22304000D02*
X9925060Y22304000D01*
X9925060Y22304000D02*
X12210540Y24589480D01*
X20590000Y13414000D02*
X17796000Y13414000D01*
X11956540Y15445480D02*
X14744420Y15445480D01*
X14744420Y15445480D02*
X16775900Y13414000D01*
X16775900Y13414000D02*
X20590000Y13414000D01*
X5604000Y16462000D02*
X10940020Y16462000D01*
X10940020Y16462000D02*
X11956540Y15445480D01*
X26686000Y8334000D02*
X17792940Y8334000D01*
X17792940Y8334000D02*
X14745460Y5286520D01*
X5604000Y3762000D02*
X6874000Y5032000D01*
X7128000Y5286000D02*
X11956020Y5286000D01*
X6874000Y5032000D02*
X7128000Y5286000D01*
X11956020Y5286000D02*
X11956540Y5286520D01*
X11956540Y5286520D02*
X14745460Y5286520D01*
X39386000Y22558000D02*
X39386000Y22050000D01*
X41164000Y20272000D02*
X41164000Y13668000D01*
X40910000Y20526000D02*
X41164000Y20272000D01*
X41672000Y33226000D02*
X41672000Y33734000D01*
X41672000Y33734000D02*
X42942000Y35004000D01*
X45990000Y35004000D02*
X47768000Y33226000D01*
X42942000Y35004000D02*
X45990000Y35004000D01*
X35830000Y22558000D02*
X39386000Y22558000D01*
X34306000Y21034000D02*
X35830000Y22558000D01*
X39894000Y31448000D02*
X41672000Y33226000D01*
X39894000Y23066000D02*
X39894000Y31448000D01*
X39386000Y22558000D02*
X39894000Y23066000D01*
X47768000Y22812000D02*
X47768000Y29416000D01*
X42434000Y17478000D02*
X47768000Y22812000D01*
X44466000Y33226000D02*
X44466000Y32718000D01*
X44466000Y32718000D02*
X47768000Y29416000D01*
X34306000Y18494000D02*
X37100000Y18494000D01*
X37100000Y18494000D02*
X38116000Y17478000D01*
X59452000Y21542000D02*
X59452000Y21796000D01*
X59452000Y21796000D02*
X56658000Y24590000D01*
X56658000Y24590000D02*
X51578000Y24590000D01*
X51578000Y22050000D02*
X52340000Y22050000D01*
X52340000Y22050000D02*
X55388000Y19002000D01*
X55388000Y19002000D02*
X56912000Y19002000D01*
X59452000Y19002000D02*
X58182000Y17732000D01*
X53356000Y17732000D02*
X51578000Y19510000D01*
X58182000Y17732000D02*
X53356000Y17732000D01*
X51578000Y16970000D02*
X56404000Y16970000D01*
X56404000Y16970000D02*
X56912000Y16462000D01*
X59452000Y16462000D02*
X58182000Y15192000D01*
X52340000Y15192000D02*
X51578000Y14430000D01*
X58182000Y15192000D02*
X52340000Y15192000D01*
X56912000Y13922000D02*
X53610000Y13922000D01*
X53610000Y13922000D02*
X51578000Y11890000D01*
X59452000Y13922000D02*
X58182000Y12652000D01*
X55896000Y12652000D02*
X52594000Y9350000D01*
X58182000Y12652000D02*
X55896000Y12652000D01*
X52594000Y9350000D02*
X51578000Y9350000D01*
X51578000Y6810000D02*
X54118000Y6810000D01*
X56912000Y9604000D02*
X56912000Y11382000D01*
X54118000Y6810000D02*
X56912000Y9604000D01*
X23638000Y21034000D02*
X21860000Y19256000D01*
X24400000Y12906000D02*
X26432000Y10874000D01*
X21860000Y19256000D02*
X21860000Y16970000D01*
X26432000Y10874000D02*
X26686000Y10874000D01*
X21352000Y24336000D02*
X21352000Y23320000D01*
X21352000Y23320000D02*
X23638000Y21034000D01*
X26686000Y5794000D02*
X25162000Y5794000D01*
X23638000Y9096000D02*
X23638000Y14430000D01*
X25162000Y5794000D02*
X23638000Y7318000D01*
X20590000Y3254000D02*
X24146000Y3254000D01*
X24146000Y3254000D02*
X26686000Y5794000D01*
X34306000Y13414000D02*
X36592000Y13414000D01*
X46498000Y12906000D02*
X48276000Y14684000D01*
X37100000Y12906000D02*
X46498000Y12906000D01*
X36592000Y13414000D02*
X37100000Y12906000D01*
X48276000Y20272000D02*
X48276000Y17478000D01*
X48276000Y17478000D02*
X48276000Y14684000D01*
X47260000Y11128000D02*
X49038000Y9350000D01*
X49038000Y9350000D02*
X49038000Y7572000D01*
X49038000Y7572000D02*
X47006000Y5540000D01*
X34306000Y8334000D02*
X36846000Y8334000D01*
M02*
