G04 #@! TF.FileFunction,Copper,L2,Bot,Signal*
%FSLAX46Y46*%
G04 Gerber Fmt 4.6, Leading zero omitted, Abs format (unit mm)*
G04 Created by KiCad (PCBNEW 4.0.1-stable) date Sonntag, 31. Januar 2016 13:18:43*
%MOMM*%
G01*
G04 APERTURE LIST*
%ADD10C,0.100000*%
%ADD11C,1.998980*%
%ADD12R,1.998980X1.998980*%
%ADD13C,4.064000*%
%ADD14R,1.300000X1.300000*%
%ADD15C,1.300000*%
%ADD16O,1.600000X1.600000*%
%ADD17R,1.727200X1.727200*%
%ADD18O,1.727200X1.727200*%
%ADD19C,1.524000*%
%ADD20R,2.032000X1.727200*%
%ADD21O,2.032000X1.727200*%
%ADD22R,2.235200X2.235200*%
%ADD23C,0.600000*%
%ADD24C,0.500000*%
%ADD25C,0.250000*%
%ADD26C,0.254000*%
G04 APERTURE END LIST*
D10*
X0Y0D02*
X0Y1000000D01*
X62000000Y0D02*
X0Y0D01*
X62000000Y38000000D02*
X62000000Y0D01*
X0Y38000000D02*
X62000000Y38000000D01*
X0Y1000000D02*
X0Y38000000D01*
D11*
X14999460Y34750000D03*
D12*
X14999460Y24590000D03*
D11*
X12210540Y24590000D03*
D12*
X12210540Y34750000D03*
D11*
X14745460Y15446000D03*
D12*
X14745460Y5286000D03*
D11*
X11956540Y5286000D03*
D12*
X11956540Y15446000D03*
D13*
X5000000Y29000000D03*
X5000000Y9000000D03*
X58000000Y4000000D03*
X58000000Y34000000D03*
D14*
X28972000Y25098000D03*
D15*
X23972000Y25098000D03*
D16*
X26686000Y21034000D03*
X26686000Y18494000D03*
X26686000Y15954000D03*
X26686000Y13414000D03*
X26686000Y10874000D03*
X26686000Y8334000D03*
X26686000Y5794000D03*
X34306000Y5794000D03*
X34306000Y8334000D03*
X34306000Y10874000D03*
X34306000Y13414000D03*
X34306000Y15954000D03*
X34306000Y18494000D03*
X34306000Y21034000D03*
D11*
X41672000Y23066000D03*
X41672000Y33226000D03*
X47006000Y8334000D03*
X36846000Y8334000D03*
X47260000Y11128000D03*
X37100000Y11128000D03*
X36846000Y5540000D03*
X47006000Y5540000D03*
X24146000Y34496000D03*
X34306000Y34496000D03*
X20590000Y3254000D03*
X20590000Y13414000D03*
X44466000Y23066000D03*
X44466000Y33226000D03*
X38116000Y17478000D03*
X48276000Y17478000D03*
X48276000Y14684000D03*
X38116000Y14684000D03*
X38116000Y20272000D03*
X48276000Y20272000D03*
X13478000Y18240000D03*
X23638000Y18240000D03*
X17796000Y13414000D03*
X17796000Y3254000D03*
X38116000Y24336000D03*
X38116000Y34496000D03*
X21352000Y24336000D03*
X21352000Y34496000D03*
X13478000Y21034000D03*
X23638000Y21034000D03*
X18558000Y34496000D03*
X18558000Y24336000D03*
D17*
X56912000Y21542000D03*
D18*
X59452000Y21542000D03*
X56912000Y19002000D03*
X59452000Y19002000D03*
X56912000Y16462000D03*
X59452000Y16462000D03*
X56912000Y13922000D03*
X59452000Y13922000D03*
X56912000Y11382000D03*
X59452000Y11382000D03*
D14*
X26940000Y29924000D03*
D15*
X29440000Y29924000D03*
D14*
X32655000Y29924000D03*
D15*
X35155000Y29924000D03*
D19*
X5604000Y22304000D03*
X5604000Y35004000D03*
X5604000Y3762000D03*
X5604000Y16462000D03*
D20*
X51578000Y24590000D03*
D21*
X51578000Y22050000D03*
X51578000Y19510000D03*
X51578000Y16970000D03*
X51578000Y14430000D03*
X51578000Y11890000D03*
X51578000Y9350000D03*
X51578000Y6810000D03*
D22*
X47768000Y33226000D03*
X47768000Y29416000D03*
D23*
X32528000Y26368000D03*
X30750000Y22558000D03*
X29480000Y11890000D03*
X19320000Y16970000D03*
X19320000Y15192000D03*
X41164000Y13668000D03*
X40910000Y20526000D03*
X39386000Y22050000D03*
X42434000Y17478000D03*
X24400000Y12906000D03*
X21860000Y16970000D03*
X23638000Y14430000D03*
X23638000Y9096000D03*
X23638000Y7318000D03*
D24*
X36846000Y5540000D02*
X36846000Y4778000D01*
X36846000Y4778000D02*
X38116000Y3508000D01*
X55388000Y21542000D02*
X56912000Y21542000D01*
X54118000Y20272000D02*
X55388000Y21542000D01*
X54118000Y4778000D02*
X54118000Y20272000D01*
X52848000Y3508000D02*
X54118000Y4778000D01*
X38116000Y3508000D02*
X52848000Y3508000D01*
D25*
X38116000Y24336000D02*
X38116000Y20272000D01*
X23972000Y25098000D02*
X23972000Y25178000D01*
X23972000Y25178000D02*
X25162000Y26368000D01*
X25162000Y26368000D02*
X32528000Y26368000D01*
X26686000Y18494000D02*
X30750000Y22558000D01*
X29480000Y11890000D02*
X30496000Y10874000D01*
X30496000Y10874000D02*
X34306000Y10874000D01*
X19320000Y15192000D02*
X19320000Y16970000D01*
X44466000Y8334000D02*
X47006000Y8334000D01*
X41164000Y11636000D02*
X44466000Y8334000D01*
X41164000Y13668000D02*
X41164000Y11636000D01*
X39386000Y22050000D02*
X40910000Y20526000D01*
X38116000Y17478000D02*
X42434000Y17478000D01*
X22876000Y12906000D02*
X24400000Y12906000D01*
X22622000Y13160000D02*
X22876000Y12906000D01*
X22622000Y16208000D02*
X22622000Y13160000D01*
X21860000Y16970000D02*
X22622000Y16208000D01*
X23638000Y14430000D02*
X23638000Y18240000D01*
X23638000Y7318000D02*
X23638000Y9096000D01*
X36846000Y8334000D02*
X41672000Y8334000D01*
X44466000Y5540000D02*
X47006000Y5540000D01*
X41672000Y8334000D02*
X44466000Y5540000D01*
D26*
G36*
X61315000Y685000D02*
X685000Y685000D01*
X685000Y2101837D01*
X16823443Y2101837D01*
X16922042Y1835035D01*
X17531582Y1608599D01*
X18181377Y1632659D01*
X18669958Y1835035D01*
X18768557Y2101837D01*
X17796000Y3074395D01*
X16823443Y2101837D01*
X685000Y2101837D01*
X685000Y3485339D01*
X4206758Y3485339D01*
X4418990Y2971697D01*
X4811630Y2578371D01*
X5324900Y2365243D01*
X5880661Y2364758D01*
X6394303Y2576990D01*
X6787629Y2969630D01*
X7000757Y3482900D01*
X7000787Y3518418D01*
X16150599Y3518418D01*
X16174659Y2868623D01*
X16377035Y2380042D01*
X16643837Y2281443D01*
X17616395Y3254000D01*
X17975605Y3254000D01*
X18948163Y2281443D01*
X19186879Y2369663D01*
X19203538Y2329345D01*
X19662927Y1869154D01*
X20263453Y1619794D01*
X20913694Y1619226D01*
X21514655Y1867538D01*
X21974846Y2326927D01*
X22224206Y2927453D01*
X22224774Y3577694D01*
X21976462Y4178655D01*
X21517073Y4638846D01*
X20916547Y4888206D01*
X20266306Y4888774D01*
X19665345Y4640462D01*
X19205154Y4181073D01*
X19187338Y4138168D01*
X18948163Y4226557D01*
X17975605Y3254000D01*
X17616395Y3254000D01*
X16643837Y4226557D01*
X16377035Y4127958D01*
X16150599Y3518418D01*
X7000787Y3518418D01*
X7001242Y4038661D01*
X6789010Y4552303D01*
X6396370Y4945629D01*
X6356208Y4962306D01*
X10321766Y4962306D01*
X10570078Y4361345D01*
X11029467Y3901154D01*
X11629993Y3651794D01*
X12280234Y3651226D01*
X12881195Y3899538D01*
X13125462Y4143379D01*
X13142808Y4051193D01*
X13281880Y3835069D01*
X13494080Y3690079D01*
X13745970Y3639070D01*
X15744950Y3639070D01*
X15980267Y3683348D01*
X16196391Y3822420D01*
X16341381Y4034620D01*
X16392390Y4286510D01*
X16392390Y4406163D01*
X16823443Y4406163D01*
X17796000Y3433605D01*
X18768557Y4406163D01*
X18669958Y4672965D01*
X18060418Y4899401D01*
X17410623Y4875341D01*
X16922042Y4672965D01*
X16823443Y4406163D01*
X16392390Y4406163D01*
X16392390Y6285490D01*
X16348112Y6520807D01*
X16209040Y6736931D01*
X15996840Y6881921D01*
X15744950Y6932930D01*
X13745970Y6932930D01*
X13510653Y6888652D01*
X13294529Y6749580D01*
X13149539Y6537380D01*
X13127161Y6426873D01*
X12883613Y6670846D01*
X12283087Y6920206D01*
X11632846Y6920774D01*
X11031885Y6672462D01*
X10571694Y6213073D01*
X10322334Y5612547D01*
X10321766Y4962306D01*
X6356208Y4962306D01*
X5883100Y5158757D01*
X5327339Y5159242D01*
X4813697Y4947010D01*
X4420371Y4554370D01*
X4207243Y4041100D01*
X4206758Y3485339D01*
X685000Y3485339D01*
X685000Y8471828D01*
X2332538Y8471828D01*
X2737709Y7491239D01*
X3487293Y6740345D01*
X4467173Y6333464D01*
X5528172Y6332538D01*
X6508761Y6737709D01*
X7259655Y7487293D01*
X7666536Y8467173D01*
X7666923Y8910833D01*
X22702838Y8910833D01*
X22844883Y8567057D01*
X22878000Y8533882D01*
X22878000Y7880463D01*
X22845808Y7848327D01*
X22703162Y7504799D01*
X22702838Y7132833D01*
X22844883Y6789057D01*
X23107673Y6525808D01*
X23451201Y6383162D01*
X23823167Y6382838D01*
X24166943Y6524883D01*
X24430192Y6787673D01*
X24572838Y7131201D01*
X24573162Y7503167D01*
X24431117Y7846943D01*
X24398000Y7880118D01*
X24398000Y8533537D01*
X24430192Y8565673D01*
X24572838Y8909201D01*
X24573162Y9281167D01*
X24431117Y9624943D01*
X24168327Y9888192D01*
X23824799Y10030838D01*
X23452833Y10031162D01*
X23109057Y9889117D01*
X22845808Y9626327D01*
X22703162Y9282799D01*
X22702838Y8910833D01*
X7666923Y8910833D01*
X7667462Y9528172D01*
X7262291Y10508761D01*
X6512707Y11259655D01*
X5532827Y11666536D01*
X4471828Y11667462D01*
X3491239Y11262291D01*
X2740345Y10512707D01*
X2333464Y9532827D01*
X2332538Y8471828D01*
X685000Y8471828D01*
X685000Y13090306D01*
X16161226Y13090306D01*
X16409538Y12489345D01*
X16868927Y12029154D01*
X17469453Y11779794D01*
X18119694Y11779226D01*
X18720655Y12027538D01*
X19180846Y12486927D01*
X19192721Y12515525D01*
X19203538Y12489345D01*
X19662927Y12029154D01*
X20263453Y11779794D01*
X20913694Y11779226D01*
X21514655Y12027538D01*
X21974846Y12486927D01*
X22051655Y12671903D01*
X22084599Y12622599D01*
X22338599Y12368599D01*
X22585160Y12203852D01*
X22876000Y12146000D01*
X23837537Y12146000D01*
X23869673Y12113808D01*
X24213201Y11971162D01*
X24585167Y11970838D01*
X24928943Y12112883D01*
X25192192Y12375673D01*
X25334838Y12719201D01*
X25334961Y12860597D01*
X25643189Y12399302D01*
X26025275Y12144000D01*
X25643189Y11888698D01*
X25332120Y11423151D01*
X25222887Y10874000D01*
X25332120Y10324849D01*
X25643189Y9859302D01*
X26025275Y9604000D01*
X25643189Y9348698D01*
X25332120Y8883151D01*
X25222887Y8334000D01*
X25332120Y7784849D01*
X25643189Y7319302D01*
X26025275Y7064000D01*
X25643189Y6808698D01*
X25332120Y6343151D01*
X25222887Y5794000D01*
X25332120Y5244849D01*
X25643189Y4779302D01*
X26108736Y4468233D01*
X26657887Y4359000D01*
X26714113Y4359000D01*
X27263264Y4468233D01*
X27728811Y4779302D01*
X28039880Y5244849D01*
X28149113Y5794000D01*
X28039880Y6343151D01*
X27728811Y6808698D01*
X27346725Y7064000D01*
X27728811Y7319302D01*
X28039880Y7784849D01*
X28149113Y8334000D01*
X28039880Y8883151D01*
X27728811Y9348698D01*
X27346725Y9604000D01*
X27728811Y9859302D01*
X28039880Y10324849D01*
X28149113Y10874000D01*
X28039880Y11423151D01*
X27851666Y11704833D01*
X28544838Y11704833D01*
X28686883Y11361057D01*
X28949673Y11097808D01*
X29293201Y10955162D01*
X29340077Y10955121D01*
X29958599Y10336599D01*
X30205161Y10171852D01*
X30496000Y10114000D01*
X33093005Y10114000D01*
X33263189Y9859302D01*
X33645275Y9604000D01*
X33263189Y9348698D01*
X32952120Y8883151D01*
X32842887Y8334000D01*
X32952120Y7784849D01*
X33263189Y7319302D01*
X33645275Y7064000D01*
X33263189Y6808698D01*
X32952120Y6343151D01*
X32842887Y5794000D01*
X32952120Y5244849D01*
X33263189Y4779302D01*
X33728736Y4468233D01*
X34277887Y4359000D01*
X34334113Y4359000D01*
X34883264Y4468233D01*
X35348811Y4779302D01*
X35375369Y4819049D01*
X35459538Y4615345D01*
X35918927Y4155154D01*
X36429114Y3943306D01*
X37490208Y2882213D01*
X37490210Y2882210D01*
X37777325Y2690367D01*
X38116000Y2622999D01*
X38116005Y2623000D01*
X52847995Y2623000D01*
X52848000Y2622999D01*
X53130484Y2679190D01*
X53186675Y2690367D01*
X53473790Y2882210D01*
X53473791Y2882211D01*
X54063407Y3471828D01*
X55332538Y3471828D01*
X55737709Y2491239D01*
X56487293Y1740345D01*
X57467173Y1333464D01*
X58528172Y1332538D01*
X59508761Y1737709D01*
X60259655Y2487293D01*
X60666536Y3467173D01*
X60667462Y4528172D01*
X60262291Y5508761D01*
X59512707Y6259655D01*
X58532827Y6666536D01*
X57471828Y6667462D01*
X56491239Y6262291D01*
X55740345Y5512707D01*
X55333464Y4532827D01*
X55332538Y3471828D01*
X54063407Y3471828D01*
X54743787Y4152208D01*
X54743790Y4152210D01*
X54935633Y4439325D01*
X54970646Y4615345D01*
X55003001Y4778000D01*
X55003000Y4778005D01*
X55003000Y19905420D01*
X55482600Y20385021D01*
X55584310Y20226959D01*
X55796510Y20081969D01*
X55840131Y20073136D01*
X55822971Y20061670D01*
X55498115Y19575489D01*
X55384041Y19002000D01*
X55498115Y18428511D01*
X55822971Y17942330D01*
X56137752Y17732000D01*
X55822971Y17521670D01*
X55498115Y17035489D01*
X55384041Y16462000D01*
X55498115Y15888511D01*
X55822971Y15402330D01*
X56137752Y15192000D01*
X55822971Y14981670D01*
X55498115Y14495489D01*
X55384041Y13922000D01*
X55498115Y13348511D01*
X55822971Y12862330D01*
X56137752Y12652000D01*
X55822971Y12441670D01*
X55498115Y11955489D01*
X55384041Y11382000D01*
X55498115Y10808511D01*
X55822971Y10322330D01*
X56309152Y9997474D01*
X56882641Y9883400D01*
X56941359Y9883400D01*
X57514848Y9997474D01*
X58001029Y10322330D01*
X58181992Y10593161D01*
X58563510Y10175179D01*
X59092973Y9927032D01*
X59325000Y10047531D01*
X59325000Y11255000D01*
X59579000Y11255000D01*
X59579000Y10047531D01*
X59811027Y9927032D01*
X60340490Y10175179D01*
X60734688Y10607053D01*
X60906958Y11022974D01*
X60785817Y11255000D01*
X59579000Y11255000D01*
X59325000Y11255000D01*
X59305000Y11255000D01*
X59305000Y11509000D01*
X59325000Y11509000D01*
X59325000Y11529000D01*
X59579000Y11529000D01*
X59579000Y11509000D01*
X60785817Y11509000D01*
X60906958Y11741026D01*
X60734688Y12156947D01*
X60340490Y12588821D01*
X60217772Y12646336D01*
X60541029Y12862330D01*
X60865885Y13348511D01*
X60979959Y13922000D01*
X60865885Y14495489D01*
X60541029Y14981670D01*
X60226248Y15192000D01*
X60541029Y15402330D01*
X60865885Y15888511D01*
X60979959Y16462000D01*
X60865885Y17035489D01*
X60541029Y17521670D01*
X60226248Y17732000D01*
X60541029Y17942330D01*
X60865885Y18428511D01*
X60979959Y19002000D01*
X60865885Y19575489D01*
X60541029Y20061670D01*
X60226248Y20272000D01*
X60541029Y20482330D01*
X60865885Y20968511D01*
X60979959Y21542000D01*
X60865885Y22115489D01*
X60541029Y22601670D01*
X60054848Y22926526D01*
X59481359Y23040600D01*
X59422641Y23040600D01*
X58849152Y22926526D01*
X58383558Y22615426D01*
X58378762Y22640917D01*
X58239690Y22857041D01*
X58027490Y23002031D01*
X57775600Y23053040D01*
X56048400Y23053040D01*
X55813083Y23008762D01*
X55596959Y22869690D01*
X55451969Y22657490D01*
X55405294Y22427000D01*
X55388005Y22427000D01*
X55388000Y22427001D01*
X55049999Y22359767D01*
X55049325Y22359633D01*
X54762210Y22167790D01*
X54762208Y22167787D01*
X53492210Y20897790D01*
X53300367Y20610675D01*
X53300367Y20610674D01*
X53232999Y20272000D01*
X53233000Y20271995D01*
X53233000Y19652500D01*
X53147271Y20083489D01*
X52822415Y20569670D01*
X52507634Y20780000D01*
X52822415Y20990330D01*
X53147271Y21476511D01*
X53261345Y22050000D01*
X53147271Y22623489D01*
X52822415Y23109670D01*
X52808087Y23119243D01*
X52829317Y23123238D01*
X53045441Y23262310D01*
X53190431Y23474510D01*
X53241440Y23726400D01*
X53241440Y25453600D01*
X53197162Y25688917D01*
X53058090Y25905041D01*
X52845890Y26050031D01*
X52594000Y26101040D01*
X50562000Y26101040D01*
X50326683Y26056762D01*
X50110559Y25917690D01*
X49965569Y25705490D01*
X49914560Y25453600D01*
X49914560Y23726400D01*
X49958838Y23491083D01*
X50097910Y23274959D01*
X50310110Y23129969D01*
X50351439Y23121600D01*
X50333585Y23109670D01*
X50008729Y22623489D01*
X49894655Y22050000D01*
X50008729Y21476511D01*
X50333585Y20990330D01*
X50648366Y20780000D01*
X50333585Y20569670D01*
X50008729Y20083489D01*
X49894655Y19510000D01*
X50008729Y18936511D01*
X50333585Y18450330D01*
X50648366Y18240000D01*
X50333585Y18029670D01*
X50008729Y17543489D01*
X49894655Y16970000D01*
X50008729Y16396511D01*
X50333585Y15910330D01*
X50648366Y15700000D01*
X50333585Y15489670D01*
X50008729Y15003489D01*
X49910338Y14508845D01*
X49910774Y15007694D01*
X49662462Y15608655D01*
X49203073Y16068846D01*
X49174475Y16080721D01*
X49200655Y16091538D01*
X49660846Y16550927D01*
X49910206Y17151453D01*
X49910774Y17801694D01*
X49662462Y18402655D01*
X49203073Y18862846D01*
X49174475Y18874721D01*
X49200655Y18885538D01*
X49660846Y19344927D01*
X49910206Y19945453D01*
X49910774Y20595694D01*
X49662462Y21196655D01*
X49203073Y21656846D01*
X48602547Y21906206D01*
X47952306Y21906774D01*
X47351345Y21658462D01*
X46891154Y21199073D01*
X46641794Y20598547D01*
X46641226Y19948306D01*
X46889538Y19347345D01*
X47348927Y18887154D01*
X47377525Y18875279D01*
X47351345Y18864462D01*
X46891154Y18405073D01*
X46641794Y17804547D01*
X46641226Y17154306D01*
X46889538Y16553345D01*
X47348927Y16093154D01*
X47377525Y16081279D01*
X47351345Y16070462D01*
X46891154Y15611073D01*
X46641794Y15010547D01*
X46641226Y14360306D01*
X46889538Y13759345D01*
X47348927Y13299154D01*
X47949453Y13049794D01*
X48599694Y13049226D01*
X49200655Y13297538D01*
X49660846Y13756927D01*
X49909448Y14355629D01*
X50008729Y13856511D01*
X50333585Y13370330D01*
X50648366Y13160000D01*
X50333585Y12949670D01*
X50008729Y12463489D01*
X49894655Y11890000D01*
X50008729Y11316511D01*
X50333585Y10830330D01*
X50648366Y10620000D01*
X50333585Y10409670D01*
X50008729Y9923489D01*
X49894655Y9350000D01*
X50008729Y8776511D01*
X50333585Y8290330D01*
X50648366Y8080000D01*
X50333585Y7869670D01*
X50008729Y7383489D01*
X49894655Y6810000D01*
X50008729Y6236511D01*
X50333585Y5750330D01*
X50819766Y5425474D01*
X51393255Y5311400D01*
X51762745Y5311400D01*
X52336234Y5425474D01*
X52822415Y5750330D01*
X53147271Y6236511D01*
X53233000Y6667500D01*
X53233000Y5144579D01*
X52481420Y4393000D01*
X48170535Y4393000D01*
X48390846Y4612927D01*
X48640206Y5213453D01*
X48640774Y5863694D01*
X48392462Y6464655D01*
X47933073Y6924846D01*
X47904475Y6936721D01*
X47930655Y6947538D01*
X48390846Y7406927D01*
X48640206Y8007453D01*
X48640774Y8657694D01*
X48392462Y9258655D01*
X47990503Y9661316D01*
X48184655Y9741538D01*
X48644846Y10200927D01*
X48894206Y10801453D01*
X48894774Y11451694D01*
X48646462Y12052655D01*
X48187073Y12512846D01*
X47586547Y12762206D01*
X46936306Y12762774D01*
X46335345Y12514462D01*
X45875154Y12055073D01*
X45625794Y11454547D01*
X45625226Y10804306D01*
X45873538Y10203345D01*
X46275497Y9800684D01*
X46081345Y9720462D01*
X45621154Y9261073D01*
X45551779Y9094000D01*
X44780802Y9094000D01*
X41924000Y11950802D01*
X41924000Y13105537D01*
X41956192Y13137673D01*
X42098838Y13481201D01*
X42099162Y13853167D01*
X41957117Y14196943D01*
X41694327Y14460192D01*
X41350799Y14602838D01*
X40978833Y14603162D01*
X40635057Y14461117D01*
X40371808Y14198327D01*
X40229162Y13854799D01*
X40228838Y13482833D01*
X40370883Y13139057D01*
X40404000Y13105882D01*
X40404000Y11636000D01*
X40461852Y11345161D01*
X40626599Y11098599D01*
X43928599Y7796599D01*
X44175160Y7631852D01*
X44466000Y7574000D01*
X45551504Y7574000D01*
X45619538Y7409345D01*
X46078927Y6949154D01*
X46107525Y6937279D01*
X46081345Y6926462D01*
X45621154Y6467073D01*
X45551779Y6300000D01*
X44780802Y6300000D01*
X42209401Y8871401D01*
X41962839Y9036148D01*
X41672000Y9094000D01*
X38300496Y9094000D01*
X38232462Y9258655D01*
X37838767Y9653037D01*
X37973958Y9709035D01*
X38072557Y9975837D01*
X37100000Y10948395D01*
X36127443Y9975837D01*
X36182015Y9828169D01*
X35921345Y9720462D01*
X35461154Y9261073D01*
X35440537Y9211421D01*
X35348811Y9348698D01*
X34966725Y9604000D01*
X35348811Y9859302D01*
X35654834Y10317297D01*
X35681035Y10254042D01*
X35947837Y10155443D01*
X36920395Y11128000D01*
X37279605Y11128000D01*
X38252163Y10155443D01*
X38518965Y10254042D01*
X38745401Y10863582D01*
X38721341Y11513377D01*
X38518965Y12001958D01*
X38252163Y12100557D01*
X37279605Y11128000D01*
X36920395Y11128000D01*
X35947837Y12100557D01*
X35681035Y12001958D01*
X35535286Y11609619D01*
X35348811Y11888698D01*
X34966725Y12144000D01*
X35170507Y12280163D01*
X36127443Y12280163D01*
X37100000Y11307605D01*
X38072557Y12280163D01*
X37973958Y12546965D01*
X37364418Y12773401D01*
X36714623Y12749341D01*
X36226042Y12546965D01*
X36127443Y12280163D01*
X35170507Y12280163D01*
X35348811Y12399302D01*
X35659880Y12864849D01*
X35769113Y13414000D01*
X35745674Y13531837D01*
X37143443Y13531837D01*
X37242042Y13265035D01*
X37851582Y13038599D01*
X38501377Y13062659D01*
X38989958Y13265035D01*
X39088557Y13531837D01*
X38116000Y14504395D01*
X37143443Y13531837D01*
X35745674Y13531837D01*
X35659880Y13963151D01*
X35348811Y14428698D01*
X34944297Y14698986D01*
X35161134Y14801611D01*
X35294122Y14948418D01*
X36470599Y14948418D01*
X36494659Y14298623D01*
X36697035Y13810042D01*
X36963837Y13711443D01*
X37936395Y14684000D01*
X38295605Y14684000D01*
X39268163Y13711443D01*
X39534965Y13810042D01*
X39761401Y14419582D01*
X39737341Y15069377D01*
X39534965Y15557958D01*
X39268163Y15656557D01*
X38295605Y14684000D01*
X37936395Y14684000D01*
X36963837Y15656557D01*
X36697035Y15557958D01*
X36470599Y14948418D01*
X35294122Y14948418D01*
X35537041Y15216577D01*
X35697904Y15604961D01*
X35575915Y15827000D01*
X34433000Y15827000D01*
X34433000Y15807000D01*
X34179000Y15807000D01*
X34179000Y15827000D01*
X33036085Y15827000D01*
X32914096Y15604961D01*
X33074959Y15216577D01*
X33450866Y14801611D01*
X33667703Y14698986D01*
X33263189Y14428698D01*
X32952120Y13963151D01*
X32842887Y13414000D01*
X32952120Y12864849D01*
X33263189Y12399302D01*
X33645275Y12144000D01*
X33263189Y11888698D01*
X33093005Y11634000D01*
X30810802Y11634000D01*
X30415122Y12029680D01*
X30415162Y12075167D01*
X30273117Y12418943D01*
X30010327Y12682192D01*
X29666799Y12824838D01*
X29294833Y12825162D01*
X28951057Y12683117D01*
X28687808Y12420327D01*
X28545162Y12076799D01*
X28544838Y11704833D01*
X27851666Y11704833D01*
X27728811Y11888698D01*
X27346725Y12144000D01*
X27728811Y12399302D01*
X28039880Y12864849D01*
X28149113Y13414000D01*
X28039880Y13963151D01*
X27728811Y14428698D01*
X27346725Y14684000D01*
X27728811Y14939302D01*
X28039880Y15404849D01*
X28149113Y15954000D01*
X28039880Y16503151D01*
X27728811Y16968698D01*
X27346725Y17224000D01*
X27728811Y17479302D01*
X28039880Y17944849D01*
X28149113Y18494000D01*
X28084688Y18817886D01*
X30300802Y21034000D01*
X32842887Y21034000D01*
X32952120Y20484849D01*
X33263189Y20019302D01*
X33645275Y19764000D01*
X33263189Y19508698D01*
X32952120Y19043151D01*
X32842887Y18494000D01*
X32952120Y17944849D01*
X33263189Y17479302D01*
X33667703Y17209014D01*
X33450866Y17106389D01*
X33074959Y16691423D01*
X32914096Y16303039D01*
X33036085Y16081000D01*
X34179000Y16081000D01*
X34179000Y16101000D01*
X34433000Y16101000D01*
X34433000Y16081000D01*
X35575915Y16081000D01*
X35697904Y16303039D01*
X35537041Y16691423D01*
X35161134Y17106389D01*
X34944297Y17209014D01*
X35348811Y17479302D01*
X35659880Y17944849D01*
X35769113Y18494000D01*
X35659880Y19043151D01*
X35348811Y19508698D01*
X34966725Y19764000D01*
X35348811Y20019302D01*
X35659880Y20484849D01*
X35769113Y21034000D01*
X35659880Y21583151D01*
X35348811Y22048698D01*
X34883264Y22359767D01*
X34334113Y22469000D01*
X34277887Y22469000D01*
X33728736Y22359767D01*
X33263189Y22048698D01*
X32952120Y21583151D01*
X32842887Y21034000D01*
X30300802Y21034000D01*
X30889680Y21622878D01*
X30935167Y21622838D01*
X31278943Y21764883D01*
X31542192Y22027673D01*
X31684838Y22371201D01*
X31685162Y22743167D01*
X31543117Y23086943D01*
X31280327Y23350192D01*
X30936799Y23492838D01*
X30564833Y23493162D01*
X30221057Y23351117D01*
X29957808Y23088327D01*
X29815162Y22744799D01*
X29815121Y22697923D01*
X28148595Y21031397D01*
X28149113Y21034000D01*
X28039880Y21583151D01*
X27728811Y22048698D01*
X27263264Y22359767D01*
X26714113Y22469000D01*
X26657887Y22469000D01*
X26108736Y22359767D01*
X25643189Y22048698D01*
X25332120Y21583151D01*
X25272710Y21284477D01*
X25272774Y21357694D01*
X25024462Y21958655D01*
X24565073Y22418846D01*
X23964547Y22668206D01*
X23314306Y22668774D01*
X22713345Y22420462D01*
X22253154Y21961073D01*
X22003794Y21360547D01*
X22003226Y20710306D01*
X22251538Y20109345D01*
X22710927Y19649154D01*
X22739525Y19637279D01*
X22713345Y19626462D01*
X22253154Y19167073D01*
X22003794Y18566547D01*
X22003226Y17916306D01*
X22007950Y17904872D01*
X21674833Y17905162D01*
X21331057Y17763117D01*
X21067808Y17500327D01*
X20925162Y17156799D01*
X20924838Y16784833D01*
X21066883Y16441057D01*
X21329673Y16177808D01*
X21673201Y16035162D01*
X21720077Y16035121D01*
X21862000Y15893198D01*
X21862000Y14453317D01*
X21517073Y14798846D01*
X20916547Y15048206D01*
X20266306Y15048774D01*
X20254872Y15044050D01*
X20255162Y15377167D01*
X20113117Y15720943D01*
X20080000Y15754118D01*
X20080000Y16407537D01*
X20112192Y16439673D01*
X20254838Y16783201D01*
X20255162Y17155167D01*
X20113117Y17498943D01*
X19850327Y17762192D01*
X19506799Y17904838D01*
X19134833Y17905162D01*
X18791057Y17763117D01*
X18527808Y17500327D01*
X18385162Y17156799D01*
X18384838Y16784833D01*
X18526883Y16441057D01*
X18560000Y16407882D01*
X18560000Y15754463D01*
X18527808Y15722327D01*
X18385162Y15378799D01*
X18384838Y15006833D01*
X18418524Y14925306D01*
X18122547Y15048206D01*
X17472306Y15048774D01*
X16871345Y14800462D01*
X16411154Y14341073D01*
X16161794Y13740547D01*
X16161226Y13090306D01*
X685000Y13090306D01*
X685000Y16185339D01*
X4206758Y16185339D01*
X4418990Y15671697D01*
X4811630Y15278371D01*
X5324900Y15065243D01*
X5880661Y15064758D01*
X6394303Y15276990D01*
X6787629Y15669630D01*
X7000757Y16182900D01*
X7000986Y16445490D01*
X10309610Y16445490D01*
X10309610Y14446510D01*
X10353888Y14211193D01*
X10492960Y13995069D01*
X10705160Y13850079D01*
X10957050Y13799070D01*
X12956030Y13799070D01*
X13191347Y13843348D01*
X13407471Y13982420D01*
X13552461Y14194620D01*
X13574839Y14305127D01*
X13818387Y14061154D01*
X14418913Y13811794D01*
X15069154Y13811226D01*
X15670115Y14059538D01*
X16130306Y14518927D01*
X16379666Y15119453D01*
X16380234Y15769694D01*
X16131922Y16370655D01*
X15672533Y16830846D01*
X15072007Y17080206D01*
X14630105Y17080592D01*
X14862846Y17312927D01*
X15112206Y17913453D01*
X15112774Y18563694D01*
X14864462Y19164655D01*
X14405073Y19624846D01*
X14376475Y19636721D01*
X14402655Y19647538D01*
X14862846Y20106927D01*
X15112206Y20707453D01*
X15112774Y21357694D01*
X14864462Y21958655D01*
X14405073Y22418846D01*
X13804547Y22668206D01*
X13154306Y22668774D01*
X12553345Y22420462D01*
X12093154Y21961073D01*
X11843794Y21360547D01*
X11843226Y20710306D01*
X12091538Y20109345D01*
X12550927Y19649154D01*
X12579525Y19637279D01*
X12553345Y19626462D01*
X12093154Y19167073D01*
X11843794Y18566547D01*
X11843226Y17916306D01*
X12091538Y17315345D01*
X12313565Y17092930D01*
X10957050Y17092930D01*
X10721733Y17048652D01*
X10505609Y16909580D01*
X10360619Y16697380D01*
X10309610Y16445490D01*
X7000986Y16445490D01*
X7001242Y16738661D01*
X6789010Y17252303D01*
X6396370Y17645629D01*
X5883100Y17858757D01*
X5327339Y17859242D01*
X4813697Y17647010D01*
X4420371Y17254370D01*
X4207243Y16741100D01*
X4206758Y16185339D01*
X685000Y16185339D01*
X685000Y22027339D01*
X4206758Y22027339D01*
X4418990Y21513697D01*
X4811630Y21120371D01*
X5324900Y20907243D01*
X5880661Y20906758D01*
X6394303Y21118990D01*
X6787629Y21511630D01*
X7000757Y22024900D01*
X7001242Y22580661D01*
X6789010Y23094303D01*
X6396370Y23487629D01*
X5883100Y23700757D01*
X5327339Y23701242D01*
X4813697Y23489010D01*
X4420371Y23096370D01*
X4207243Y22583100D01*
X4206758Y22027339D01*
X685000Y22027339D01*
X685000Y24266306D01*
X10575766Y24266306D01*
X10824078Y23665345D01*
X11283467Y23205154D01*
X11883993Y22955794D01*
X12534234Y22955226D01*
X13135195Y23203538D01*
X13379462Y23447379D01*
X13396808Y23355193D01*
X13535880Y23139069D01*
X13748080Y22994079D01*
X13999970Y22943070D01*
X15998950Y22943070D01*
X16234267Y22987348D01*
X16450391Y23126420D01*
X16489622Y23183837D01*
X17585443Y23183837D01*
X17684042Y22917035D01*
X18293582Y22690599D01*
X18943377Y22714659D01*
X19431958Y22917035D01*
X19530557Y23183837D01*
X18558000Y24156395D01*
X17585443Y23183837D01*
X16489622Y23183837D01*
X16595381Y23338620D01*
X16646390Y23590510D01*
X16646390Y24600418D01*
X16912599Y24600418D01*
X16936659Y23950623D01*
X17139035Y23462042D01*
X17405837Y23363443D01*
X18378395Y24336000D01*
X18737605Y24336000D01*
X19710163Y23363443D01*
X19948879Y23451663D01*
X19965538Y23411345D01*
X20424927Y22951154D01*
X21025453Y22701794D01*
X21675694Y22701226D01*
X22276655Y22949538D01*
X22736846Y23408927D01*
X22986206Y24009453D01*
X22986430Y24266439D01*
X23243155Y24009265D01*
X23715276Y23813223D01*
X24226481Y23812777D01*
X24698943Y24007995D01*
X25060735Y24369155D01*
X25244724Y24812250D01*
X27687000Y24812250D01*
X27687000Y24321690D01*
X27783673Y24088301D01*
X27962302Y23909673D01*
X28195691Y23813000D01*
X28686250Y23813000D01*
X28845000Y23971750D01*
X28845000Y24971000D01*
X29099000Y24971000D01*
X29099000Y23971750D01*
X29257750Y23813000D01*
X29748309Y23813000D01*
X29981698Y23909673D01*
X30084331Y24012306D01*
X36481226Y24012306D01*
X36729538Y23411345D01*
X37188927Y22951154D01*
X37356000Y22881779D01*
X37356000Y21726496D01*
X37191345Y21658462D01*
X36731154Y21199073D01*
X36481794Y20598547D01*
X36481226Y19948306D01*
X36729538Y19347345D01*
X37188927Y18887154D01*
X37217525Y18875279D01*
X37191345Y18864462D01*
X36731154Y18405073D01*
X36481794Y17804547D01*
X36481226Y17154306D01*
X36729538Y16553345D01*
X37188927Y16093154D01*
X37231832Y16075338D01*
X37143443Y15836163D01*
X38116000Y14863605D01*
X39088557Y15836163D01*
X39000337Y16074879D01*
X39040655Y16091538D01*
X39500846Y16550927D01*
X39570221Y16718000D01*
X41871537Y16718000D01*
X41903673Y16685808D01*
X42247201Y16543162D01*
X42619167Y16542838D01*
X42962943Y16684883D01*
X43226192Y16947673D01*
X43368838Y17291201D01*
X43369162Y17663167D01*
X43227117Y18006943D01*
X42964327Y18270192D01*
X42620799Y18412838D01*
X42248833Y18413162D01*
X41905057Y18271117D01*
X41871882Y18238000D01*
X39570496Y18238000D01*
X39502462Y18402655D01*
X39043073Y18862846D01*
X39014475Y18874721D01*
X39040655Y18885538D01*
X39500846Y19344927D01*
X39750206Y19945453D01*
X39750774Y20595694D01*
X39740402Y20620796D01*
X39974878Y20386320D01*
X39974838Y20340833D01*
X40116883Y19997057D01*
X40379673Y19733808D01*
X40723201Y19591162D01*
X41095167Y19590838D01*
X41438943Y19732883D01*
X41702192Y19995673D01*
X41844838Y20339201D01*
X41845162Y20711167D01*
X41703117Y21054943D01*
X41440327Y21318192D01*
X41096799Y21460838D01*
X41049923Y21460879D01*
X40889808Y21620994D01*
X41345453Y21431794D01*
X41995694Y21431226D01*
X42596655Y21679538D01*
X43056846Y22138927D01*
X43068721Y22167525D01*
X43079538Y22141345D01*
X43538927Y21681154D01*
X44139453Y21431794D01*
X44789694Y21431226D01*
X45390655Y21679538D01*
X45850846Y22138927D01*
X46100206Y22739453D01*
X46100774Y23389694D01*
X45852462Y23990655D01*
X45393073Y24450846D01*
X44792547Y24700206D01*
X44142306Y24700774D01*
X43541345Y24452462D01*
X43081154Y23993073D01*
X43069279Y23964475D01*
X43058462Y23990655D01*
X42599073Y24450846D01*
X41998547Y24700206D01*
X41348306Y24700774D01*
X40747345Y24452462D01*
X40287154Y23993073D01*
X40037794Y23392547D01*
X40037226Y22742306D01*
X40052189Y22706093D01*
X39916327Y22842192D01*
X39572799Y22984838D01*
X39200833Y22985162D01*
X38876000Y22850944D01*
X38876000Y22881504D01*
X39040655Y22949538D01*
X39500846Y23408927D01*
X39750206Y24009453D01*
X39750774Y24659694D01*
X39502462Y25260655D01*
X39043073Y25720846D01*
X38442547Y25970206D01*
X37792306Y25970774D01*
X37191345Y25722462D01*
X36731154Y25263073D01*
X36481794Y24662547D01*
X36481226Y24012306D01*
X30084331Y24012306D01*
X30160327Y24088301D01*
X30257000Y24321690D01*
X30257000Y24812250D01*
X30098250Y24971000D01*
X29099000Y24971000D01*
X28845000Y24971000D01*
X27845750Y24971000D01*
X27687000Y24812250D01*
X25244724Y24812250D01*
X25256777Y24841276D01*
X25257223Y25352481D01*
X25246715Y25377913D01*
X25476802Y25608000D01*
X27687000Y25608000D01*
X27687000Y25383750D01*
X27845750Y25225000D01*
X28845000Y25225000D01*
X28845000Y25245000D01*
X29099000Y25245000D01*
X29099000Y25225000D01*
X30098250Y25225000D01*
X30257000Y25383750D01*
X30257000Y25608000D01*
X31965537Y25608000D01*
X31997673Y25575808D01*
X32341201Y25433162D01*
X32713167Y25432838D01*
X33056943Y25574883D01*
X33320192Y25837673D01*
X33462838Y26181201D01*
X33463162Y26553167D01*
X33321117Y26896943D01*
X33058327Y27160192D01*
X32714799Y27302838D01*
X32342833Y27303162D01*
X31999057Y27161117D01*
X31965882Y27128000D01*
X25162000Y27128000D01*
X24871161Y27070148D01*
X24624599Y26905401D01*
X24102085Y26382887D01*
X23717519Y26383223D01*
X23245057Y26188005D01*
X22883265Y25826845D01*
X22687223Y25354724D01*
X22687186Y25312021D01*
X22279073Y25720846D01*
X21678547Y25970206D01*
X21028306Y25970774D01*
X20427345Y25722462D01*
X19967154Y25263073D01*
X19949338Y25220168D01*
X19710163Y25308557D01*
X18737605Y24336000D01*
X18378395Y24336000D01*
X17405837Y25308557D01*
X17139035Y25209958D01*
X16912599Y24600418D01*
X16646390Y24600418D01*
X16646390Y25488163D01*
X17585443Y25488163D01*
X18558000Y24515605D01*
X19530557Y25488163D01*
X19431958Y25754965D01*
X18822418Y25981401D01*
X18172623Y25957341D01*
X17684042Y25754965D01*
X17585443Y25488163D01*
X16646390Y25488163D01*
X16646390Y25589490D01*
X16602112Y25824807D01*
X16463040Y26040931D01*
X16250840Y26185921D01*
X15998950Y26236930D01*
X13999970Y26236930D01*
X13764653Y26192652D01*
X13548529Y26053580D01*
X13403539Y25841380D01*
X13381161Y25730873D01*
X13137613Y25974846D01*
X12537087Y26224206D01*
X11886846Y26224774D01*
X11285885Y25976462D01*
X10825694Y25517073D01*
X10576334Y24916547D01*
X10575766Y24266306D01*
X685000Y24266306D01*
X685000Y28471828D01*
X2332538Y28471828D01*
X2737709Y27491239D01*
X3487293Y26740345D01*
X4467173Y26333464D01*
X5528172Y26332538D01*
X6508761Y26737709D01*
X7259655Y27487293D01*
X7666536Y28467173D01*
X7667462Y29528172D01*
X7262291Y30508761D01*
X7197166Y30574000D01*
X25642560Y30574000D01*
X25642560Y29274000D01*
X25686838Y29038683D01*
X25825910Y28822559D01*
X26038110Y28677569D01*
X26290000Y28626560D01*
X27590000Y28626560D01*
X27825317Y28670838D01*
X28041441Y28809910D01*
X28186431Y29022110D01*
X28187012Y29024984D01*
X28720590Y29024984D01*
X28776271Y28794389D01*
X29259078Y28626378D01*
X29769428Y28655917D01*
X30103729Y28794389D01*
X30159410Y29024984D01*
X29440000Y29744395D01*
X28720590Y29024984D01*
X28187012Y29024984D01*
X28237440Y29274000D01*
X28237440Y29436385D01*
X28310389Y29260271D01*
X28540984Y29204590D01*
X29260395Y29924000D01*
X29619605Y29924000D01*
X30339016Y29204590D01*
X30569611Y29260271D01*
X30737622Y29743078D01*
X30708083Y30253428D01*
X30575298Y30574000D01*
X31357560Y30574000D01*
X31357560Y29274000D01*
X31401838Y29038683D01*
X31540910Y28822559D01*
X31753110Y28677569D01*
X32005000Y28626560D01*
X33305000Y28626560D01*
X33540317Y28670838D01*
X33756441Y28809910D01*
X33901431Y29022110D01*
X33902012Y29024984D01*
X34435590Y29024984D01*
X34491271Y28794389D01*
X34974078Y28626378D01*
X35484428Y28655917D01*
X35818729Y28794389D01*
X35874410Y29024984D01*
X35155000Y29744395D01*
X34435590Y29024984D01*
X33902012Y29024984D01*
X33952440Y29274000D01*
X33952440Y29436385D01*
X34025389Y29260271D01*
X34255984Y29204590D01*
X34975395Y29924000D01*
X35334605Y29924000D01*
X36054016Y29204590D01*
X36284611Y29260271D01*
X36452622Y29743078D01*
X36423083Y30253428D01*
X36307032Y30533600D01*
X46002960Y30533600D01*
X46002960Y28298400D01*
X46047238Y28063083D01*
X46186310Y27846959D01*
X46398510Y27701969D01*
X46650400Y27650960D01*
X48885600Y27650960D01*
X49120917Y27695238D01*
X49337041Y27834310D01*
X49482031Y28046510D01*
X49533040Y28298400D01*
X49533040Y30533600D01*
X49488762Y30768917D01*
X49349690Y30985041D01*
X49137490Y31130031D01*
X48885600Y31181040D01*
X46650400Y31181040D01*
X46415083Y31136762D01*
X46198959Y30997690D01*
X46053969Y30785490D01*
X46002960Y30533600D01*
X36307032Y30533600D01*
X36284611Y30587729D01*
X36054016Y30643410D01*
X35334605Y29924000D01*
X34975395Y29924000D01*
X34255984Y30643410D01*
X34025389Y30587729D01*
X33952440Y30378098D01*
X33952440Y30574000D01*
X33908162Y30809317D01*
X33899347Y30823016D01*
X34435590Y30823016D01*
X35155000Y30103605D01*
X35874410Y30823016D01*
X35818729Y31053611D01*
X35335922Y31221622D01*
X34825572Y31192083D01*
X34491271Y31053611D01*
X34435590Y30823016D01*
X33899347Y30823016D01*
X33769090Y31025441D01*
X33556890Y31170431D01*
X33305000Y31221440D01*
X32005000Y31221440D01*
X31769683Y31177162D01*
X31553559Y31038090D01*
X31408569Y30825890D01*
X31357560Y30574000D01*
X30575298Y30574000D01*
X30569611Y30587729D01*
X30339016Y30643410D01*
X29619605Y29924000D01*
X29260395Y29924000D01*
X28540984Y30643410D01*
X28310389Y30587729D01*
X28237440Y30378098D01*
X28237440Y30574000D01*
X28193162Y30809317D01*
X28184347Y30823016D01*
X28720590Y30823016D01*
X29440000Y30103605D01*
X30159410Y30823016D01*
X30103729Y31053611D01*
X29620922Y31221622D01*
X29110572Y31192083D01*
X28776271Y31053611D01*
X28720590Y30823016D01*
X28184347Y30823016D01*
X28054090Y31025441D01*
X27841890Y31170431D01*
X27590000Y31221440D01*
X26290000Y31221440D01*
X26054683Y31177162D01*
X25838559Y31038090D01*
X25693569Y30825890D01*
X25642560Y30574000D01*
X7197166Y30574000D01*
X6512707Y31259655D01*
X5532827Y31666536D01*
X4471828Y31667462D01*
X3491239Y31262291D01*
X2740345Y30512707D01*
X2333464Y29532827D01*
X2332538Y28471828D01*
X685000Y28471828D01*
X685000Y34727339D01*
X4206758Y34727339D01*
X4418990Y34213697D01*
X4811630Y33820371D01*
X5324900Y33607243D01*
X5880661Y33606758D01*
X6394303Y33818990D01*
X6787629Y34211630D01*
X7000757Y34724900D01*
X7001242Y35280661D01*
X6807527Y35749490D01*
X10563610Y35749490D01*
X10563610Y33750510D01*
X10607888Y33515193D01*
X10746960Y33299069D01*
X10959160Y33154079D01*
X11211050Y33103070D01*
X13210030Y33103070D01*
X13445347Y33147348D01*
X13661471Y33286420D01*
X13806461Y33498620D01*
X13828839Y33609127D01*
X14072387Y33365154D01*
X14672913Y33115794D01*
X15323154Y33115226D01*
X15924115Y33363538D01*
X16384306Y33822927D01*
X16529380Y34172306D01*
X16923226Y34172306D01*
X17171538Y33571345D01*
X17630927Y33111154D01*
X18231453Y32861794D01*
X18881694Y32861226D01*
X19482655Y33109538D01*
X19942846Y33568927D01*
X19954721Y33597525D01*
X19965538Y33571345D01*
X20424927Y33111154D01*
X21025453Y32861794D01*
X21675694Y32861226D01*
X22276655Y33109538D01*
X22736846Y33568927D01*
X22748721Y33597525D01*
X22759538Y33571345D01*
X23218927Y33111154D01*
X23819453Y32861794D01*
X24469694Y32861226D01*
X25070655Y33109538D01*
X25530846Y33568927D01*
X25780206Y34169453D01*
X25780208Y34172306D01*
X32671226Y34172306D01*
X32919538Y33571345D01*
X33378927Y33111154D01*
X33979453Y32861794D01*
X34629694Y32861226D01*
X35230655Y33109538D01*
X35690846Y33568927D01*
X35940206Y34169453D01*
X35940208Y34172306D01*
X36481226Y34172306D01*
X36729538Y33571345D01*
X37188927Y33111154D01*
X37789453Y32861794D01*
X38439694Y32861226D01*
X38539115Y32902306D01*
X40037226Y32902306D01*
X40285538Y32301345D01*
X40744927Y31841154D01*
X41345453Y31591794D01*
X41995694Y31591226D01*
X42596655Y31839538D01*
X43056846Y32298927D01*
X43068721Y32327525D01*
X43079538Y32301345D01*
X43538927Y31841154D01*
X44139453Y31591794D01*
X44789694Y31591226D01*
X45390655Y31839538D01*
X45850846Y32298927D01*
X46002960Y32665258D01*
X46002960Y32108400D01*
X46047238Y31873083D01*
X46186310Y31656959D01*
X46398510Y31511969D01*
X46650400Y31460960D01*
X48885600Y31460960D01*
X49120917Y31505238D01*
X49337041Y31644310D01*
X49482031Y31856510D01*
X49533040Y32108400D01*
X49533040Y33471828D01*
X55332538Y33471828D01*
X55737709Y32491239D01*
X56487293Y31740345D01*
X57467173Y31333464D01*
X58528172Y31332538D01*
X59508761Y31737709D01*
X60259655Y32487293D01*
X60666536Y33467173D01*
X60667462Y34528172D01*
X60262291Y35508761D01*
X59512707Y36259655D01*
X58532827Y36666536D01*
X57471828Y36667462D01*
X56491239Y36262291D01*
X55740345Y35512707D01*
X55333464Y34532827D01*
X55332538Y33471828D01*
X49533040Y33471828D01*
X49533040Y34343600D01*
X49488762Y34578917D01*
X49349690Y34795041D01*
X49137490Y34940031D01*
X48885600Y34991040D01*
X46650400Y34991040D01*
X46415083Y34946762D01*
X46198959Y34807690D01*
X46053969Y34595490D01*
X46002960Y34343600D01*
X46002960Y33786422D01*
X45852462Y34150655D01*
X45393073Y34610846D01*
X44792547Y34860206D01*
X44142306Y34860774D01*
X43541345Y34612462D01*
X43081154Y34153073D01*
X43069279Y34124475D01*
X43058462Y34150655D01*
X42599073Y34610846D01*
X41998547Y34860206D01*
X41348306Y34860774D01*
X40747345Y34612462D01*
X40287154Y34153073D01*
X40037794Y33552547D01*
X40037226Y32902306D01*
X38539115Y32902306D01*
X39040655Y33109538D01*
X39500846Y33568927D01*
X39750206Y34169453D01*
X39750774Y34819694D01*
X39502462Y35420655D01*
X39043073Y35880846D01*
X38442547Y36130206D01*
X37792306Y36130774D01*
X37191345Y35882462D01*
X36731154Y35423073D01*
X36481794Y34822547D01*
X36481226Y34172306D01*
X35940208Y34172306D01*
X35940774Y34819694D01*
X35692462Y35420655D01*
X35233073Y35880846D01*
X34632547Y36130206D01*
X33982306Y36130774D01*
X33381345Y35882462D01*
X32921154Y35423073D01*
X32671794Y34822547D01*
X32671226Y34172306D01*
X25780208Y34172306D01*
X25780774Y34819694D01*
X25532462Y35420655D01*
X25073073Y35880846D01*
X24472547Y36130206D01*
X23822306Y36130774D01*
X23221345Y35882462D01*
X22761154Y35423073D01*
X22749279Y35394475D01*
X22738462Y35420655D01*
X22279073Y35880846D01*
X21678547Y36130206D01*
X21028306Y36130774D01*
X20427345Y35882462D01*
X19967154Y35423073D01*
X19955279Y35394475D01*
X19944462Y35420655D01*
X19485073Y35880846D01*
X18884547Y36130206D01*
X18234306Y36130774D01*
X17633345Y35882462D01*
X17173154Y35423073D01*
X16923794Y34822547D01*
X16923226Y34172306D01*
X16529380Y34172306D01*
X16633666Y34423453D01*
X16634234Y35073694D01*
X16385922Y35674655D01*
X15926533Y36134846D01*
X15326007Y36384206D01*
X14675766Y36384774D01*
X14074805Y36136462D01*
X13830538Y35892621D01*
X13813192Y35984807D01*
X13674120Y36200931D01*
X13461920Y36345921D01*
X13210030Y36396930D01*
X11211050Y36396930D01*
X10975733Y36352652D01*
X10759609Y36213580D01*
X10614619Y36001380D01*
X10563610Y35749490D01*
X6807527Y35749490D01*
X6789010Y35794303D01*
X6396370Y36187629D01*
X5883100Y36400757D01*
X5327339Y36401242D01*
X4813697Y36189010D01*
X4420371Y35796370D01*
X4207243Y35283100D01*
X4206758Y34727339D01*
X685000Y34727339D01*
X685000Y37315000D01*
X61315000Y37315000D01*
X61315000Y685000D01*
X61315000Y685000D01*
G37*
X61315000Y685000D02*
X685000Y685000D01*
X685000Y2101837D01*
X16823443Y2101837D01*
X16922042Y1835035D01*
X17531582Y1608599D01*
X18181377Y1632659D01*
X18669958Y1835035D01*
X18768557Y2101837D01*
X17796000Y3074395D01*
X16823443Y2101837D01*
X685000Y2101837D01*
X685000Y3485339D01*
X4206758Y3485339D01*
X4418990Y2971697D01*
X4811630Y2578371D01*
X5324900Y2365243D01*
X5880661Y2364758D01*
X6394303Y2576990D01*
X6787629Y2969630D01*
X7000757Y3482900D01*
X7000787Y3518418D01*
X16150599Y3518418D01*
X16174659Y2868623D01*
X16377035Y2380042D01*
X16643837Y2281443D01*
X17616395Y3254000D01*
X17975605Y3254000D01*
X18948163Y2281443D01*
X19186879Y2369663D01*
X19203538Y2329345D01*
X19662927Y1869154D01*
X20263453Y1619794D01*
X20913694Y1619226D01*
X21514655Y1867538D01*
X21974846Y2326927D01*
X22224206Y2927453D01*
X22224774Y3577694D01*
X21976462Y4178655D01*
X21517073Y4638846D01*
X20916547Y4888206D01*
X20266306Y4888774D01*
X19665345Y4640462D01*
X19205154Y4181073D01*
X19187338Y4138168D01*
X18948163Y4226557D01*
X17975605Y3254000D01*
X17616395Y3254000D01*
X16643837Y4226557D01*
X16377035Y4127958D01*
X16150599Y3518418D01*
X7000787Y3518418D01*
X7001242Y4038661D01*
X6789010Y4552303D01*
X6396370Y4945629D01*
X6356208Y4962306D01*
X10321766Y4962306D01*
X10570078Y4361345D01*
X11029467Y3901154D01*
X11629993Y3651794D01*
X12280234Y3651226D01*
X12881195Y3899538D01*
X13125462Y4143379D01*
X13142808Y4051193D01*
X13281880Y3835069D01*
X13494080Y3690079D01*
X13745970Y3639070D01*
X15744950Y3639070D01*
X15980267Y3683348D01*
X16196391Y3822420D01*
X16341381Y4034620D01*
X16392390Y4286510D01*
X16392390Y4406163D01*
X16823443Y4406163D01*
X17796000Y3433605D01*
X18768557Y4406163D01*
X18669958Y4672965D01*
X18060418Y4899401D01*
X17410623Y4875341D01*
X16922042Y4672965D01*
X16823443Y4406163D01*
X16392390Y4406163D01*
X16392390Y6285490D01*
X16348112Y6520807D01*
X16209040Y6736931D01*
X15996840Y6881921D01*
X15744950Y6932930D01*
X13745970Y6932930D01*
X13510653Y6888652D01*
X13294529Y6749580D01*
X13149539Y6537380D01*
X13127161Y6426873D01*
X12883613Y6670846D01*
X12283087Y6920206D01*
X11632846Y6920774D01*
X11031885Y6672462D01*
X10571694Y6213073D01*
X10322334Y5612547D01*
X10321766Y4962306D01*
X6356208Y4962306D01*
X5883100Y5158757D01*
X5327339Y5159242D01*
X4813697Y4947010D01*
X4420371Y4554370D01*
X4207243Y4041100D01*
X4206758Y3485339D01*
X685000Y3485339D01*
X685000Y8471828D01*
X2332538Y8471828D01*
X2737709Y7491239D01*
X3487293Y6740345D01*
X4467173Y6333464D01*
X5528172Y6332538D01*
X6508761Y6737709D01*
X7259655Y7487293D01*
X7666536Y8467173D01*
X7666923Y8910833D01*
X22702838Y8910833D01*
X22844883Y8567057D01*
X22878000Y8533882D01*
X22878000Y7880463D01*
X22845808Y7848327D01*
X22703162Y7504799D01*
X22702838Y7132833D01*
X22844883Y6789057D01*
X23107673Y6525808D01*
X23451201Y6383162D01*
X23823167Y6382838D01*
X24166943Y6524883D01*
X24430192Y6787673D01*
X24572838Y7131201D01*
X24573162Y7503167D01*
X24431117Y7846943D01*
X24398000Y7880118D01*
X24398000Y8533537D01*
X24430192Y8565673D01*
X24572838Y8909201D01*
X24573162Y9281167D01*
X24431117Y9624943D01*
X24168327Y9888192D01*
X23824799Y10030838D01*
X23452833Y10031162D01*
X23109057Y9889117D01*
X22845808Y9626327D01*
X22703162Y9282799D01*
X22702838Y8910833D01*
X7666923Y8910833D01*
X7667462Y9528172D01*
X7262291Y10508761D01*
X6512707Y11259655D01*
X5532827Y11666536D01*
X4471828Y11667462D01*
X3491239Y11262291D01*
X2740345Y10512707D01*
X2333464Y9532827D01*
X2332538Y8471828D01*
X685000Y8471828D01*
X685000Y13090306D01*
X16161226Y13090306D01*
X16409538Y12489345D01*
X16868927Y12029154D01*
X17469453Y11779794D01*
X18119694Y11779226D01*
X18720655Y12027538D01*
X19180846Y12486927D01*
X19192721Y12515525D01*
X19203538Y12489345D01*
X19662927Y12029154D01*
X20263453Y11779794D01*
X20913694Y11779226D01*
X21514655Y12027538D01*
X21974846Y12486927D01*
X22051655Y12671903D01*
X22084599Y12622599D01*
X22338599Y12368599D01*
X22585160Y12203852D01*
X22876000Y12146000D01*
X23837537Y12146000D01*
X23869673Y12113808D01*
X24213201Y11971162D01*
X24585167Y11970838D01*
X24928943Y12112883D01*
X25192192Y12375673D01*
X25334838Y12719201D01*
X25334961Y12860597D01*
X25643189Y12399302D01*
X26025275Y12144000D01*
X25643189Y11888698D01*
X25332120Y11423151D01*
X25222887Y10874000D01*
X25332120Y10324849D01*
X25643189Y9859302D01*
X26025275Y9604000D01*
X25643189Y9348698D01*
X25332120Y8883151D01*
X25222887Y8334000D01*
X25332120Y7784849D01*
X25643189Y7319302D01*
X26025275Y7064000D01*
X25643189Y6808698D01*
X25332120Y6343151D01*
X25222887Y5794000D01*
X25332120Y5244849D01*
X25643189Y4779302D01*
X26108736Y4468233D01*
X26657887Y4359000D01*
X26714113Y4359000D01*
X27263264Y4468233D01*
X27728811Y4779302D01*
X28039880Y5244849D01*
X28149113Y5794000D01*
X28039880Y6343151D01*
X27728811Y6808698D01*
X27346725Y7064000D01*
X27728811Y7319302D01*
X28039880Y7784849D01*
X28149113Y8334000D01*
X28039880Y8883151D01*
X27728811Y9348698D01*
X27346725Y9604000D01*
X27728811Y9859302D01*
X28039880Y10324849D01*
X28149113Y10874000D01*
X28039880Y11423151D01*
X27851666Y11704833D01*
X28544838Y11704833D01*
X28686883Y11361057D01*
X28949673Y11097808D01*
X29293201Y10955162D01*
X29340077Y10955121D01*
X29958599Y10336599D01*
X30205161Y10171852D01*
X30496000Y10114000D01*
X33093005Y10114000D01*
X33263189Y9859302D01*
X33645275Y9604000D01*
X33263189Y9348698D01*
X32952120Y8883151D01*
X32842887Y8334000D01*
X32952120Y7784849D01*
X33263189Y7319302D01*
X33645275Y7064000D01*
X33263189Y6808698D01*
X32952120Y6343151D01*
X32842887Y5794000D01*
X32952120Y5244849D01*
X33263189Y4779302D01*
X33728736Y4468233D01*
X34277887Y4359000D01*
X34334113Y4359000D01*
X34883264Y4468233D01*
X35348811Y4779302D01*
X35375369Y4819049D01*
X35459538Y4615345D01*
X35918927Y4155154D01*
X36429114Y3943306D01*
X37490208Y2882213D01*
X37490210Y2882210D01*
X37777325Y2690367D01*
X38116000Y2622999D01*
X38116005Y2623000D01*
X52847995Y2623000D01*
X52848000Y2622999D01*
X53130484Y2679190D01*
X53186675Y2690367D01*
X53473790Y2882210D01*
X53473791Y2882211D01*
X54063407Y3471828D01*
X55332538Y3471828D01*
X55737709Y2491239D01*
X56487293Y1740345D01*
X57467173Y1333464D01*
X58528172Y1332538D01*
X59508761Y1737709D01*
X60259655Y2487293D01*
X60666536Y3467173D01*
X60667462Y4528172D01*
X60262291Y5508761D01*
X59512707Y6259655D01*
X58532827Y6666536D01*
X57471828Y6667462D01*
X56491239Y6262291D01*
X55740345Y5512707D01*
X55333464Y4532827D01*
X55332538Y3471828D01*
X54063407Y3471828D01*
X54743787Y4152208D01*
X54743790Y4152210D01*
X54935633Y4439325D01*
X54970646Y4615345D01*
X55003001Y4778000D01*
X55003000Y4778005D01*
X55003000Y19905420D01*
X55482600Y20385021D01*
X55584310Y20226959D01*
X55796510Y20081969D01*
X55840131Y20073136D01*
X55822971Y20061670D01*
X55498115Y19575489D01*
X55384041Y19002000D01*
X55498115Y18428511D01*
X55822971Y17942330D01*
X56137752Y17732000D01*
X55822971Y17521670D01*
X55498115Y17035489D01*
X55384041Y16462000D01*
X55498115Y15888511D01*
X55822971Y15402330D01*
X56137752Y15192000D01*
X55822971Y14981670D01*
X55498115Y14495489D01*
X55384041Y13922000D01*
X55498115Y13348511D01*
X55822971Y12862330D01*
X56137752Y12652000D01*
X55822971Y12441670D01*
X55498115Y11955489D01*
X55384041Y11382000D01*
X55498115Y10808511D01*
X55822971Y10322330D01*
X56309152Y9997474D01*
X56882641Y9883400D01*
X56941359Y9883400D01*
X57514848Y9997474D01*
X58001029Y10322330D01*
X58181992Y10593161D01*
X58563510Y10175179D01*
X59092973Y9927032D01*
X59325000Y10047531D01*
X59325000Y11255000D01*
X59579000Y11255000D01*
X59579000Y10047531D01*
X59811027Y9927032D01*
X60340490Y10175179D01*
X60734688Y10607053D01*
X60906958Y11022974D01*
X60785817Y11255000D01*
X59579000Y11255000D01*
X59325000Y11255000D01*
X59305000Y11255000D01*
X59305000Y11509000D01*
X59325000Y11509000D01*
X59325000Y11529000D01*
X59579000Y11529000D01*
X59579000Y11509000D01*
X60785817Y11509000D01*
X60906958Y11741026D01*
X60734688Y12156947D01*
X60340490Y12588821D01*
X60217772Y12646336D01*
X60541029Y12862330D01*
X60865885Y13348511D01*
X60979959Y13922000D01*
X60865885Y14495489D01*
X60541029Y14981670D01*
X60226248Y15192000D01*
X60541029Y15402330D01*
X60865885Y15888511D01*
X60979959Y16462000D01*
X60865885Y17035489D01*
X60541029Y17521670D01*
X60226248Y17732000D01*
X60541029Y17942330D01*
X60865885Y18428511D01*
X60979959Y19002000D01*
X60865885Y19575489D01*
X60541029Y20061670D01*
X60226248Y20272000D01*
X60541029Y20482330D01*
X60865885Y20968511D01*
X60979959Y21542000D01*
X60865885Y22115489D01*
X60541029Y22601670D01*
X60054848Y22926526D01*
X59481359Y23040600D01*
X59422641Y23040600D01*
X58849152Y22926526D01*
X58383558Y22615426D01*
X58378762Y22640917D01*
X58239690Y22857041D01*
X58027490Y23002031D01*
X57775600Y23053040D01*
X56048400Y23053040D01*
X55813083Y23008762D01*
X55596959Y22869690D01*
X55451969Y22657490D01*
X55405294Y22427000D01*
X55388005Y22427000D01*
X55388000Y22427001D01*
X55049999Y22359767D01*
X55049325Y22359633D01*
X54762210Y22167790D01*
X54762208Y22167787D01*
X53492210Y20897790D01*
X53300367Y20610675D01*
X53300367Y20610674D01*
X53232999Y20272000D01*
X53233000Y20271995D01*
X53233000Y19652500D01*
X53147271Y20083489D01*
X52822415Y20569670D01*
X52507634Y20780000D01*
X52822415Y20990330D01*
X53147271Y21476511D01*
X53261345Y22050000D01*
X53147271Y22623489D01*
X52822415Y23109670D01*
X52808087Y23119243D01*
X52829317Y23123238D01*
X53045441Y23262310D01*
X53190431Y23474510D01*
X53241440Y23726400D01*
X53241440Y25453600D01*
X53197162Y25688917D01*
X53058090Y25905041D01*
X52845890Y26050031D01*
X52594000Y26101040D01*
X50562000Y26101040D01*
X50326683Y26056762D01*
X50110559Y25917690D01*
X49965569Y25705490D01*
X49914560Y25453600D01*
X49914560Y23726400D01*
X49958838Y23491083D01*
X50097910Y23274959D01*
X50310110Y23129969D01*
X50351439Y23121600D01*
X50333585Y23109670D01*
X50008729Y22623489D01*
X49894655Y22050000D01*
X50008729Y21476511D01*
X50333585Y20990330D01*
X50648366Y20780000D01*
X50333585Y20569670D01*
X50008729Y20083489D01*
X49894655Y19510000D01*
X50008729Y18936511D01*
X50333585Y18450330D01*
X50648366Y18240000D01*
X50333585Y18029670D01*
X50008729Y17543489D01*
X49894655Y16970000D01*
X50008729Y16396511D01*
X50333585Y15910330D01*
X50648366Y15700000D01*
X50333585Y15489670D01*
X50008729Y15003489D01*
X49910338Y14508845D01*
X49910774Y15007694D01*
X49662462Y15608655D01*
X49203073Y16068846D01*
X49174475Y16080721D01*
X49200655Y16091538D01*
X49660846Y16550927D01*
X49910206Y17151453D01*
X49910774Y17801694D01*
X49662462Y18402655D01*
X49203073Y18862846D01*
X49174475Y18874721D01*
X49200655Y18885538D01*
X49660846Y19344927D01*
X49910206Y19945453D01*
X49910774Y20595694D01*
X49662462Y21196655D01*
X49203073Y21656846D01*
X48602547Y21906206D01*
X47952306Y21906774D01*
X47351345Y21658462D01*
X46891154Y21199073D01*
X46641794Y20598547D01*
X46641226Y19948306D01*
X46889538Y19347345D01*
X47348927Y18887154D01*
X47377525Y18875279D01*
X47351345Y18864462D01*
X46891154Y18405073D01*
X46641794Y17804547D01*
X46641226Y17154306D01*
X46889538Y16553345D01*
X47348927Y16093154D01*
X47377525Y16081279D01*
X47351345Y16070462D01*
X46891154Y15611073D01*
X46641794Y15010547D01*
X46641226Y14360306D01*
X46889538Y13759345D01*
X47348927Y13299154D01*
X47949453Y13049794D01*
X48599694Y13049226D01*
X49200655Y13297538D01*
X49660846Y13756927D01*
X49909448Y14355629D01*
X50008729Y13856511D01*
X50333585Y13370330D01*
X50648366Y13160000D01*
X50333585Y12949670D01*
X50008729Y12463489D01*
X49894655Y11890000D01*
X50008729Y11316511D01*
X50333585Y10830330D01*
X50648366Y10620000D01*
X50333585Y10409670D01*
X50008729Y9923489D01*
X49894655Y9350000D01*
X50008729Y8776511D01*
X50333585Y8290330D01*
X50648366Y8080000D01*
X50333585Y7869670D01*
X50008729Y7383489D01*
X49894655Y6810000D01*
X50008729Y6236511D01*
X50333585Y5750330D01*
X50819766Y5425474D01*
X51393255Y5311400D01*
X51762745Y5311400D01*
X52336234Y5425474D01*
X52822415Y5750330D01*
X53147271Y6236511D01*
X53233000Y6667500D01*
X53233000Y5144579D01*
X52481420Y4393000D01*
X48170535Y4393000D01*
X48390846Y4612927D01*
X48640206Y5213453D01*
X48640774Y5863694D01*
X48392462Y6464655D01*
X47933073Y6924846D01*
X47904475Y6936721D01*
X47930655Y6947538D01*
X48390846Y7406927D01*
X48640206Y8007453D01*
X48640774Y8657694D01*
X48392462Y9258655D01*
X47990503Y9661316D01*
X48184655Y9741538D01*
X48644846Y10200927D01*
X48894206Y10801453D01*
X48894774Y11451694D01*
X48646462Y12052655D01*
X48187073Y12512846D01*
X47586547Y12762206D01*
X46936306Y12762774D01*
X46335345Y12514462D01*
X45875154Y12055073D01*
X45625794Y11454547D01*
X45625226Y10804306D01*
X45873538Y10203345D01*
X46275497Y9800684D01*
X46081345Y9720462D01*
X45621154Y9261073D01*
X45551779Y9094000D01*
X44780802Y9094000D01*
X41924000Y11950802D01*
X41924000Y13105537D01*
X41956192Y13137673D01*
X42098838Y13481201D01*
X42099162Y13853167D01*
X41957117Y14196943D01*
X41694327Y14460192D01*
X41350799Y14602838D01*
X40978833Y14603162D01*
X40635057Y14461117D01*
X40371808Y14198327D01*
X40229162Y13854799D01*
X40228838Y13482833D01*
X40370883Y13139057D01*
X40404000Y13105882D01*
X40404000Y11636000D01*
X40461852Y11345161D01*
X40626599Y11098599D01*
X43928599Y7796599D01*
X44175160Y7631852D01*
X44466000Y7574000D01*
X45551504Y7574000D01*
X45619538Y7409345D01*
X46078927Y6949154D01*
X46107525Y6937279D01*
X46081345Y6926462D01*
X45621154Y6467073D01*
X45551779Y6300000D01*
X44780802Y6300000D01*
X42209401Y8871401D01*
X41962839Y9036148D01*
X41672000Y9094000D01*
X38300496Y9094000D01*
X38232462Y9258655D01*
X37838767Y9653037D01*
X37973958Y9709035D01*
X38072557Y9975837D01*
X37100000Y10948395D01*
X36127443Y9975837D01*
X36182015Y9828169D01*
X35921345Y9720462D01*
X35461154Y9261073D01*
X35440537Y9211421D01*
X35348811Y9348698D01*
X34966725Y9604000D01*
X35348811Y9859302D01*
X35654834Y10317297D01*
X35681035Y10254042D01*
X35947837Y10155443D01*
X36920395Y11128000D01*
X37279605Y11128000D01*
X38252163Y10155443D01*
X38518965Y10254042D01*
X38745401Y10863582D01*
X38721341Y11513377D01*
X38518965Y12001958D01*
X38252163Y12100557D01*
X37279605Y11128000D01*
X36920395Y11128000D01*
X35947837Y12100557D01*
X35681035Y12001958D01*
X35535286Y11609619D01*
X35348811Y11888698D01*
X34966725Y12144000D01*
X35170507Y12280163D01*
X36127443Y12280163D01*
X37100000Y11307605D01*
X38072557Y12280163D01*
X37973958Y12546965D01*
X37364418Y12773401D01*
X36714623Y12749341D01*
X36226042Y12546965D01*
X36127443Y12280163D01*
X35170507Y12280163D01*
X35348811Y12399302D01*
X35659880Y12864849D01*
X35769113Y13414000D01*
X35745674Y13531837D01*
X37143443Y13531837D01*
X37242042Y13265035D01*
X37851582Y13038599D01*
X38501377Y13062659D01*
X38989958Y13265035D01*
X39088557Y13531837D01*
X38116000Y14504395D01*
X37143443Y13531837D01*
X35745674Y13531837D01*
X35659880Y13963151D01*
X35348811Y14428698D01*
X34944297Y14698986D01*
X35161134Y14801611D01*
X35294122Y14948418D01*
X36470599Y14948418D01*
X36494659Y14298623D01*
X36697035Y13810042D01*
X36963837Y13711443D01*
X37936395Y14684000D01*
X38295605Y14684000D01*
X39268163Y13711443D01*
X39534965Y13810042D01*
X39761401Y14419582D01*
X39737341Y15069377D01*
X39534965Y15557958D01*
X39268163Y15656557D01*
X38295605Y14684000D01*
X37936395Y14684000D01*
X36963837Y15656557D01*
X36697035Y15557958D01*
X36470599Y14948418D01*
X35294122Y14948418D01*
X35537041Y15216577D01*
X35697904Y15604961D01*
X35575915Y15827000D01*
X34433000Y15827000D01*
X34433000Y15807000D01*
X34179000Y15807000D01*
X34179000Y15827000D01*
X33036085Y15827000D01*
X32914096Y15604961D01*
X33074959Y15216577D01*
X33450866Y14801611D01*
X33667703Y14698986D01*
X33263189Y14428698D01*
X32952120Y13963151D01*
X32842887Y13414000D01*
X32952120Y12864849D01*
X33263189Y12399302D01*
X33645275Y12144000D01*
X33263189Y11888698D01*
X33093005Y11634000D01*
X30810802Y11634000D01*
X30415122Y12029680D01*
X30415162Y12075167D01*
X30273117Y12418943D01*
X30010327Y12682192D01*
X29666799Y12824838D01*
X29294833Y12825162D01*
X28951057Y12683117D01*
X28687808Y12420327D01*
X28545162Y12076799D01*
X28544838Y11704833D01*
X27851666Y11704833D01*
X27728811Y11888698D01*
X27346725Y12144000D01*
X27728811Y12399302D01*
X28039880Y12864849D01*
X28149113Y13414000D01*
X28039880Y13963151D01*
X27728811Y14428698D01*
X27346725Y14684000D01*
X27728811Y14939302D01*
X28039880Y15404849D01*
X28149113Y15954000D01*
X28039880Y16503151D01*
X27728811Y16968698D01*
X27346725Y17224000D01*
X27728811Y17479302D01*
X28039880Y17944849D01*
X28149113Y18494000D01*
X28084688Y18817886D01*
X30300802Y21034000D01*
X32842887Y21034000D01*
X32952120Y20484849D01*
X33263189Y20019302D01*
X33645275Y19764000D01*
X33263189Y19508698D01*
X32952120Y19043151D01*
X32842887Y18494000D01*
X32952120Y17944849D01*
X33263189Y17479302D01*
X33667703Y17209014D01*
X33450866Y17106389D01*
X33074959Y16691423D01*
X32914096Y16303039D01*
X33036085Y16081000D01*
X34179000Y16081000D01*
X34179000Y16101000D01*
X34433000Y16101000D01*
X34433000Y16081000D01*
X35575915Y16081000D01*
X35697904Y16303039D01*
X35537041Y16691423D01*
X35161134Y17106389D01*
X34944297Y17209014D01*
X35348811Y17479302D01*
X35659880Y17944849D01*
X35769113Y18494000D01*
X35659880Y19043151D01*
X35348811Y19508698D01*
X34966725Y19764000D01*
X35348811Y20019302D01*
X35659880Y20484849D01*
X35769113Y21034000D01*
X35659880Y21583151D01*
X35348811Y22048698D01*
X34883264Y22359767D01*
X34334113Y22469000D01*
X34277887Y22469000D01*
X33728736Y22359767D01*
X33263189Y22048698D01*
X32952120Y21583151D01*
X32842887Y21034000D01*
X30300802Y21034000D01*
X30889680Y21622878D01*
X30935167Y21622838D01*
X31278943Y21764883D01*
X31542192Y22027673D01*
X31684838Y22371201D01*
X31685162Y22743167D01*
X31543117Y23086943D01*
X31280327Y23350192D01*
X30936799Y23492838D01*
X30564833Y23493162D01*
X30221057Y23351117D01*
X29957808Y23088327D01*
X29815162Y22744799D01*
X29815121Y22697923D01*
X28148595Y21031397D01*
X28149113Y21034000D01*
X28039880Y21583151D01*
X27728811Y22048698D01*
X27263264Y22359767D01*
X26714113Y22469000D01*
X26657887Y22469000D01*
X26108736Y22359767D01*
X25643189Y22048698D01*
X25332120Y21583151D01*
X25272710Y21284477D01*
X25272774Y21357694D01*
X25024462Y21958655D01*
X24565073Y22418846D01*
X23964547Y22668206D01*
X23314306Y22668774D01*
X22713345Y22420462D01*
X22253154Y21961073D01*
X22003794Y21360547D01*
X22003226Y20710306D01*
X22251538Y20109345D01*
X22710927Y19649154D01*
X22739525Y19637279D01*
X22713345Y19626462D01*
X22253154Y19167073D01*
X22003794Y18566547D01*
X22003226Y17916306D01*
X22007950Y17904872D01*
X21674833Y17905162D01*
X21331057Y17763117D01*
X21067808Y17500327D01*
X20925162Y17156799D01*
X20924838Y16784833D01*
X21066883Y16441057D01*
X21329673Y16177808D01*
X21673201Y16035162D01*
X21720077Y16035121D01*
X21862000Y15893198D01*
X21862000Y14453317D01*
X21517073Y14798846D01*
X20916547Y15048206D01*
X20266306Y15048774D01*
X20254872Y15044050D01*
X20255162Y15377167D01*
X20113117Y15720943D01*
X20080000Y15754118D01*
X20080000Y16407537D01*
X20112192Y16439673D01*
X20254838Y16783201D01*
X20255162Y17155167D01*
X20113117Y17498943D01*
X19850327Y17762192D01*
X19506799Y17904838D01*
X19134833Y17905162D01*
X18791057Y17763117D01*
X18527808Y17500327D01*
X18385162Y17156799D01*
X18384838Y16784833D01*
X18526883Y16441057D01*
X18560000Y16407882D01*
X18560000Y15754463D01*
X18527808Y15722327D01*
X18385162Y15378799D01*
X18384838Y15006833D01*
X18418524Y14925306D01*
X18122547Y15048206D01*
X17472306Y15048774D01*
X16871345Y14800462D01*
X16411154Y14341073D01*
X16161794Y13740547D01*
X16161226Y13090306D01*
X685000Y13090306D01*
X685000Y16185339D01*
X4206758Y16185339D01*
X4418990Y15671697D01*
X4811630Y15278371D01*
X5324900Y15065243D01*
X5880661Y15064758D01*
X6394303Y15276990D01*
X6787629Y15669630D01*
X7000757Y16182900D01*
X7000986Y16445490D01*
X10309610Y16445490D01*
X10309610Y14446510D01*
X10353888Y14211193D01*
X10492960Y13995069D01*
X10705160Y13850079D01*
X10957050Y13799070D01*
X12956030Y13799070D01*
X13191347Y13843348D01*
X13407471Y13982420D01*
X13552461Y14194620D01*
X13574839Y14305127D01*
X13818387Y14061154D01*
X14418913Y13811794D01*
X15069154Y13811226D01*
X15670115Y14059538D01*
X16130306Y14518927D01*
X16379666Y15119453D01*
X16380234Y15769694D01*
X16131922Y16370655D01*
X15672533Y16830846D01*
X15072007Y17080206D01*
X14630105Y17080592D01*
X14862846Y17312927D01*
X15112206Y17913453D01*
X15112774Y18563694D01*
X14864462Y19164655D01*
X14405073Y19624846D01*
X14376475Y19636721D01*
X14402655Y19647538D01*
X14862846Y20106927D01*
X15112206Y20707453D01*
X15112774Y21357694D01*
X14864462Y21958655D01*
X14405073Y22418846D01*
X13804547Y22668206D01*
X13154306Y22668774D01*
X12553345Y22420462D01*
X12093154Y21961073D01*
X11843794Y21360547D01*
X11843226Y20710306D01*
X12091538Y20109345D01*
X12550927Y19649154D01*
X12579525Y19637279D01*
X12553345Y19626462D01*
X12093154Y19167073D01*
X11843794Y18566547D01*
X11843226Y17916306D01*
X12091538Y17315345D01*
X12313565Y17092930D01*
X10957050Y17092930D01*
X10721733Y17048652D01*
X10505609Y16909580D01*
X10360619Y16697380D01*
X10309610Y16445490D01*
X7000986Y16445490D01*
X7001242Y16738661D01*
X6789010Y17252303D01*
X6396370Y17645629D01*
X5883100Y17858757D01*
X5327339Y17859242D01*
X4813697Y17647010D01*
X4420371Y17254370D01*
X4207243Y16741100D01*
X4206758Y16185339D01*
X685000Y16185339D01*
X685000Y22027339D01*
X4206758Y22027339D01*
X4418990Y21513697D01*
X4811630Y21120371D01*
X5324900Y20907243D01*
X5880661Y20906758D01*
X6394303Y21118990D01*
X6787629Y21511630D01*
X7000757Y22024900D01*
X7001242Y22580661D01*
X6789010Y23094303D01*
X6396370Y23487629D01*
X5883100Y23700757D01*
X5327339Y23701242D01*
X4813697Y23489010D01*
X4420371Y23096370D01*
X4207243Y22583100D01*
X4206758Y22027339D01*
X685000Y22027339D01*
X685000Y24266306D01*
X10575766Y24266306D01*
X10824078Y23665345D01*
X11283467Y23205154D01*
X11883993Y22955794D01*
X12534234Y22955226D01*
X13135195Y23203538D01*
X13379462Y23447379D01*
X13396808Y23355193D01*
X13535880Y23139069D01*
X13748080Y22994079D01*
X13999970Y22943070D01*
X15998950Y22943070D01*
X16234267Y22987348D01*
X16450391Y23126420D01*
X16489622Y23183837D01*
X17585443Y23183837D01*
X17684042Y22917035D01*
X18293582Y22690599D01*
X18943377Y22714659D01*
X19431958Y22917035D01*
X19530557Y23183837D01*
X18558000Y24156395D01*
X17585443Y23183837D01*
X16489622Y23183837D01*
X16595381Y23338620D01*
X16646390Y23590510D01*
X16646390Y24600418D01*
X16912599Y24600418D01*
X16936659Y23950623D01*
X17139035Y23462042D01*
X17405837Y23363443D01*
X18378395Y24336000D01*
X18737605Y24336000D01*
X19710163Y23363443D01*
X19948879Y23451663D01*
X19965538Y23411345D01*
X20424927Y22951154D01*
X21025453Y22701794D01*
X21675694Y22701226D01*
X22276655Y22949538D01*
X22736846Y23408927D01*
X22986206Y24009453D01*
X22986430Y24266439D01*
X23243155Y24009265D01*
X23715276Y23813223D01*
X24226481Y23812777D01*
X24698943Y24007995D01*
X25060735Y24369155D01*
X25244724Y24812250D01*
X27687000Y24812250D01*
X27687000Y24321690D01*
X27783673Y24088301D01*
X27962302Y23909673D01*
X28195691Y23813000D01*
X28686250Y23813000D01*
X28845000Y23971750D01*
X28845000Y24971000D01*
X29099000Y24971000D01*
X29099000Y23971750D01*
X29257750Y23813000D01*
X29748309Y23813000D01*
X29981698Y23909673D01*
X30084331Y24012306D01*
X36481226Y24012306D01*
X36729538Y23411345D01*
X37188927Y22951154D01*
X37356000Y22881779D01*
X37356000Y21726496D01*
X37191345Y21658462D01*
X36731154Y21199073D01*
X36481794Y20598547D01*
X36481226Y19948306D01*
X36729538Y19347345D01*
X37188927Y18887154D01*
X37217525Y18875279D01*
X37191345Y18864462D01*
X36731154Y18405073D01*
X36481794Y17804547D01*
X36481226Y17154306D01*
X36729538Y16553345D01*
X37188927Y16093154D01*
X37231832Y16075338D01*
X37143443Y15836163D01*
X38116000Y14863605D01*
X39088557Y15836163D01*
X39000337Y16074879D01*
X39040655Y16091538D01*
X39500846Y16550927D01*
X39570221Y16718000D01*
X41871537Y16718000D01*
X41903673Y16685808D01*
X42247201Y16543162D01*
X42619167Y16542838D01*
X42962943Y16684883D01*
X43226192Y16947673D01*
X43368838Y17291201D01*
X43369162Y17663167D01*
X43227117Y18006943D01*
X42964327Y18270192D01*
X42620799Y18412838D01*
X42248833Y18413162D01*
X41905057Y18271117D01*
X41871882Y18238000D01*
X39570496Y18238000D01*
X39502462Y18402655D01*
X39043073Y18862846D01*
X39014475Y18874721D01*
X39040655Y18885538D01*
X39500846Y19344927D01*
X39750206Y19945453D01*
X39750774Y20595694D01*
X39740402Y20620796D01*
X39974878Y20386320D01*
X39974838Y20340833D01*
X40116883Y19997057D01*
X40379673Y19733808D01*
X40723201Y19591162D01*
X41095167Y19590838D01*
X41438943Y19732883D01*
X41702192Y19995673D01*
X41844838Y20339201D01*
X41845162Y20711167D01*
X41703117Y21054943D01*
X41440327Y21318192D01*
X41096799Y21460838D01*
X41049923Y21460879D01*
X40889808Y21620994D01*
X41345453Y21431794D01*
X41995694Y21431226D01*
X42596655Y21679538D01*
X43056846Y22138927D01*
X43068721Y22167525D01*
X43079538Y22141345D01*
X43538927Y21681154D01*
X44139453Y21431794D01*
X44789694Y21431226D01*
X45390655Y21679538D01*
X45850846Y22138927D01*
X46100206Y22739453D01*
X46100774Y23389694D01*
X45852462Y23990655D01*
X45393073Y24450846D01*
X44792547Y24700206D01*
X44142306Y24700774D01*
X43541345Y24452462D01*
X43081154Y23993073D01*
X43069279Y23964475D01*
X43058462Y23990655D01*
X42599073Y24450846D01*
X41998547Y24700206D01*
X41348306Y24700774D01*
X40747345Y24452462D01*
X40287154Y23993073D01*
X40037794Y23392547D01*
X40037226Y22742306D01*
X40052189Y22706093D01*
X39916327Y22842192D01*
X39572799Y22984838D01*
X39200833Y22985162D01*
X38876000Y22850944D01*
X38876000Y22881504D01*
X39040655Y22949538D01*
X39500846Y23408927D01*
X39750206Y24009453D01*
X39750774Y24659694D01*
X39502462Y25260655D01*
X39043073Y25720846D01*
X38442547Y25970206D01*
X37792306Y25970774D01*
X37191345Y25722462D01*
X36731154Y25263073D01*
X36481794Y24662547D01*
X36481226Y24012306D01*
X30084331Y24012306D01*
X30160327Y24088301D01*
X30257000Y24321690D01*
X30257000Y24812250D01*
X30098250Y24971000D01*
X29099000Y24971000D01*
X28845000Y24971000D01*
X27845750Y24971000D01*
X27687000Y24812250D01*
X25244724Y24812250D01*
X25256777Y24841276D01*
X25257223Y25352481D01*
X25246715Y25377913D01*
X25476802Y25608000D01*
X27687000Y25608000D01*
X27687000Y25383750D01*
X27845750Y25225000D01*
X28845000Y25225000D01*
X28845000Y25245000D01*
X29099000Y25245000D01*
X29099000Y25225000D01*
X30098250Y25225000D01*
X30257000Y25383750D01*
X30257000Y25608000D01*
X31965537Y25608000D01*
X31997673Y25575808D01*
X32341201Y25433162D01*
X32713167Y25432838D01*
X33056943Y25574883D01*
X33320192Y25837673D01*
X33462838Y26181201D01*
X33463162Y26553167D01*
X33321117Y26896943D01*
X33058327Y27160192D01*
X32714799Y27302838D01*
X32342833Y27303162D01*
X31999057Y27161117D01*
X31965882Y27128000D01*
X25162000Y27128000D01*
X24871161Y27070148D01*
X24624599Y26905401D01*
X24102085Y26382887D01*
X23717519Y26383223D01*
X23245057Y26188005D01*
X22883265Y25826845D01*
X22687223Y25354724D01*
X22687186Y25312021D01*
X22279073Y25720846D01*
X21678547Y25970206D01*
X21028306Y25970774D01*
X20427345Y25722462D01*
X19967154Y25263073D01*
X19949338Y25220168D01*
X19710163Y25308557D01*
X18737605Y24336000D01*
X18378395Y24336000D01*
X17405837Y25308557D01*
X17139035Y25209958D01*
X16912599Y24600418D01*
X16646390Y24600418D01*
X16646390Y25488163D01*
X17585443Y25488163D01*
X18558000Y24515605D01*
X19530557Y25488163D01*
X19431958Y25754965D01*
X18822418Y25981401D01*
X18172623Y25957341D01*
X17684042Y25754965D01*
X17585443Y25488163D01*
X16646390Y25488163D01*
X16646390Y25589490D01*
X16602112Y25824807D01*
X16463040Y26040931D01*
X16250840Y26185921D01*
X15998950Y26236930D01*
X13999970Y26236930D01*
X13764653Y26192652D01*
X13548529Y26053580D01*
X13403539Y25841380D01*
X13381161Y25730873D01*
X13137613Y25974846D01*
X12537087Y26224206D01*
X11886846Y26224774D01*
X11285885Y25976462D01*
X10825694Y25517073D01*
X10576334Y24916547D01*
X10575766Y24266306D01*
X685000Y24266306D01*
X685000Y28471828D01*
X2332538Y28471828D01*
X2737709Y27491239D01*
X3487293Y26740345D01*
X4467173Y26333464D01*
X5528172Y26332538D01*
X6508761Y26737709D01*
X7259655Y27487293D01*
X7666536Y28467173D01*
X7667462Y29528172D01*
X7262291Y30508761D01*
X7197166Y30574000D01*
X25642560Y30574000D01*
X25642560Y29274000D01*
X25686838Y29038683D01*
X25825910Y28822559D01*
X26038110Y28677569D01*
X26290000Y28626560D01*
X27590000Y28626560D01*
X27825317Y28670838D01*
X28041441Y28809910D01*
X28186431Y29022110D01*
X28187012Y29024984D01*
X28720590Y29024984D01*
X28776271Y28794389D01*
X29259078Y28626378D01*
X29769428Y28655917D01*
X30103729Y28794389D01*
X30159410Y29024984D01*
X29440000Y29744395D01*
X28720590Y29024984D01*
X28187012Y29024984D01*
X28237440Y29274000D01*
X28237440Y29436385D01*
X28310389Y29260271D01*
X28540984Y29204590D01*
X29260395Y29924000D01*
X29619605Y29924000D01*
X30339016Y29204590D01*
X30569611Y29260271D01*
X30737622Y29743078D01*
X30708083Y30253428D01*
X30575298Y30574000D01*
X31357560Y30574000D01*
X31357560Y29274000D01*
X31401838Y29038683D01*
X31540910Y28822559D01*
X31753110Y28677569D01*
X32005000Y28626560D01*
X33305000Y28626560D01*
X33540317Y28670838D01*
X33756441Y28809910D01*
X33901431Y29022110D01*
X33902012Y29024984D01*
X34435590Y29024984D01*
X34491271Y28794389D01*
X34974078Y28626378D01*
X35484428Y28655917D01*
X35818729Y28794389D01*
X35874410Y29024984D01*
X35155000Y29744395D01*
X34435590Y29024984D01*
X33902012Y29024984D01*
X33952440Y29274000D01*
X33952440Y29436385D01*
X34025389Y29260271D01*
X34255984Y29204590D01*
X34975395Y29924000D01*
X35334605Y29924000D01*
X36054016Y29204590D01*
X36284611Y29260271D01*
X36452622Y29743078D01*
X36423083Y30253428D01*
X36307032Y30533600D01*
X46002960Y30533600D01*
X46002960Y28298400D01*
X46047238Y28063083D01*
X46186310Y27846959D01*
X46398510Y27701969D01*
X46650400Y27650960D01*
X48885600Y27650960D01*
X49120917Y27695238D01*
X49337041Y27834310D01*
X49482031Y28046510D01*
X49533040Y28298400D01*
X49533040Y30533600D01*
X49488762Y30768917D01*
X49349690Y30985041D01*
X49137490Y31130031D01*
X48885600Y31181040D01*
X46650400Y31181040D01*
X46415083Y31136762D01*
X46198959Y30997690D01*
X46053969Y30785490D01*
X46002960Y30533600D01*
X36307032Y30533600D01*
X36284611Y30587729D01*
X36054016Y30643410D01*
X35334605Y29924000D01*
X34975395Y29924000D01*
X34255984Y30643410D01*
X34025389Y30587729D01*
X33952440Y30378098D01*
X33952440Y30574000D01*
X33908162Y30809317D01*
X33899347Y30823016D01*
X34435590Y30823016D01*
X35155000Y30103605D01*
X35874410Y30823016D01*
X35818729Y31053611D01*
X35335922Y31221622D01*
X34825572Y31192083D01*
X34491271Y31053611D01*
X34435590Y30823016D01*
X33899347Y30823016D01*
X33769090Y31025441D01*
X33556890Y31170431D01*
X33305000Y31221440D01*
X32005000Y31221440D01*
X31769683Y31177162D01*
X31553559Y31038090D01*
X31408569Y30825890D01*
X31357560Y30574000D01*
X30575298Y30574000D01*
X30569611Y30587729D01*
X30339016Y30643410D01*
X29619605Y29924000D01*
X29260395Y29924000D01*
X28540984Y30643410D01*
X28310389Y30587729D01*
X28237440Y30378098D01*
X28237440Y30574000D01*
X28193162Y30809317D01*
X28184347Y30823016D01*
X28720590Y30823016D01*
X29440000Y30103605D01*
X30159410Y30823016D01*
X30103729Y31053611D01*
X29620922Y31221622D01*
X29110572Y31192083D01*
X28776271Y31053611D01*
X28720590Y30823016D01*
X28184347Y30823016D01*
X28054090Y31025441D01*
X27841890Y31170431D01*
X27590000Y31221440D01*
X26290000Y31221440D01*
X26054683Y31177162D01*
X25838559Y31038090D01*
X25693569Y30825890D01*
X25642560Y30574000D01*
X7197166Y30574000D01*
X6512707Y31259655D01*
X5532827Y31666536D01*
X4471828Y31667462D01*
X3491239Y31262291D01*
X2740345Y30512707D01*
X2333464Y29532827D01*
X2332538Y28471828D01*
X685000Y28471828D01*
X685000Y34727339D01*
X4206758Y34727339D01*
X4418990Y34213697D01*
X4811630Y33820371D01*
X5324900Y33607243D01*
X5880661Y33606758D01*
X6394303Y33818990D01*
X6787629Y34211630D01*
X7000757Y34724900D01*
X7001242Y35280661D01*
X6807527Y35749490D01*
X10563610Y35749490D01*
X10563610Y33750510D01*
X10607888Y33515193D01*
X10746960Y33299069D01*
X10959160Y33154079D01*
X11211050Y33103070D01*
X13210030Y33103070D01*
X13445347Y33147348D01*
X13661471Y33286420D01*
X13806461Y33498620D01*
X13828839Y33609127D01*
X14072387Y33365154D01*
X14672913Y33115794D01*
X15323154Y33115226D01*
X15924115Y33363538D01*
X16384306Y33822927D01*
X16529380Y34172306D01*
X16923226Y34172306D01*
X17171538Y33571345D01*
X17630927Y33111154D01*
X18231453Y32861794D01*
X18881694Y32861226D01*
X19482655Y33109538D01*
X19942846Y33568927D01*
X19954721Y33597525D01*
X19965538Y33571345D01*
X20424927Y33111154D01*
X21025453Y32861794D01*
X21675694Y32861226D01*
X22276655Y33109538D01*
X22736846Y33568927D01*
X22748721Y33597525D01*
X22759538Y33571345D01*
X23218927Y33111154D01*
X23819453Y32861794D01*
X24469694Y32861226D01*
X25070655Y33109538D01*
X25530846Y33568927D01*
X25780206Y34169453D01*
X25780208Y34172306D01*
X32671226Y34172306D01*
X32919538Y33571345D01*
X33378927Y33111154D01*
X33979453Y32861794D01*
X34629694Y32861226D01*
X35230655Y33109538D01*
X35690846Y33568927D01*
X35940206Y34169453D01*
X35940208Y34172306D01*
X36481226Y34172306D01*
X36729538Y33571345D01*
X37188927Y33111154D01*
X37789453Y32861794D01*
X38439694Y32861226D01*
X38539115Y32902306D01*
X40037226Y32902306D01*
X40285538Y32301345D01*
X40744927Y31841154D01*
X41345453Y31591794D01*
X41995694Y31591226D01*
X42596655Y31839538D01*
X43056846Y32298927D01*
X43068721Y32327525D01*
X43079538Y32301345D01*
X43538927Y31841154D01*
X44139453Y31591794D01*
X44789694Y31591226D01*
X45390655Y31839538D01*
X45850846Y32298927D01*
X46002960Y32665258D01*
X46002960Y32108400D01*
X46047238Y31873083D01*
X46186310Y31656959D01*
X46398510Y31511969D01*
X46650400Y31460960D01*
X48885600Y31460960D01*
X49120917Y31505238D01*
X49337041Y31644310D01*
X49482031Y31856510D01*
X49533040Y32108400D01*
X49533040Y33471828D01*
X55332538Y33471828D01*
X55737709Y32491239D01*
X56487293Y31740345D01*
X57467173Y31333464D01*
X58528172Y31332538D01*
X59508761Y31737709D01*
X60259655Y32487293D01*
X60666536Y33467173D01*
X60667462Y34528172D01*
X60262291Y35508761D01*
X59512707Y36259655D01*
X58532827Y36666536D01*
X57471828Y36667462D01*
X56491239Y36262291D01*
X55740345Y35512707D01*
X55333464Y34532827D01*
X55332538Y33471828D01*
X49533040Y33471828D01*
X49533040Y34343600D01*
X49488762Y34578917D01*
X49349690Y34795041D01*
X49137490Y34940031D01*
X48885600Y34991040D01*
X46650400Y34991040D01*
X46415083Y34946762D01*
X46198959Y34807690D01*
X46053969Y34595490D01*
X46002960Y34343600D01*
X46002960Y33786422D01*
X45852462Y34150655D01*
X45393073Y34610846D01*
X44792547Y34860206D01*
X44142306Y34860774D01*
X43541345Y34612462D01*
X43081154Y34153073D01*
X43069279Y34124475D01*
X43058462Y34150655D01*
X42599073Y34610846D01*
X41998547Y34860206D01*
X41348306Y34860774D01*
X40747345Y34612462D01*
X40287154Y34153073D01*
X40037794Y33552547D01*
X40037226Y32902306D01*
X38539115Y32902306D01*
X39040655Y33109538D01*
X39500846Y33568927D01*
X39750206Y34169453D01*
X39750774Y34819694D01*
X39502462Y35420655D01*
X39043073Y35880846D01*
X38442547Y36130206D01*
X37792306Y36130774D01*
X37191345Y35882462D01*
X36731154Y35423073D01*
X36481794Y34822547D01*
X36481226Y34172306D01*
X35940208Y34172306D01*
X35940774Y34819694D01*
X35692462Y35420655D01*
X35233073Y35880846D01*
X34632547Y36130206D01*
X33982306Y36130774D01*
X33381345Y35882462D01*
X32921154Y35423073D01*
X32671794Y34822547D01*
X32671226Y34172306D01*
X25780208Y34172306D01*
X25780774Y34819694D01*
X25532462Y35420655D01*
X25073073Y35880846D01*
X24472547Y36130206D01*
X23822306Y36130774D01*
X23221345Y35882462D01*
X22761154Y35423073D01*
X22749279Y35394475D01*
X22738462Y35420655D01*
X22279073Y35880846D01*
X21678547Y36130206D01*
X21028306Y36130774D01*
X20427345Y35882462D01*
X19967154Y35423073D01*
X19955279Y35394475D01*
X19944462Y35420655D01*
X19485073Y35880846D01*
X18884547Y36130206D01*
X18234306Y36130774D01*
X17633345Y35882462D01*
X17173154Y35423073D01*
X16923794Y34822547D01*
X16923226Y34172306D01*
X16529380Y34172306D01*
X16633666Y34423453D01*
X16634234Y35073694D01*
X16385922Y35674655D01*
X15926533Y36134846D01*
X15326007Y36384206D01*
X14675766Y36384774D01*
X14074805Y36136462D01*
X13830538Y35892621D01*
X13813192Y35984807D01*
X13674120Y36200931D01*
X13461920Y36345921D01*
X13210030Y36396930D01*
X11211050Y36396930D01*
X10975733Y36352652D01*
X10759609Y36213580D01*
X10614619Y36001380D01*
X10563610Y35749490D01*
X6807527Y35749490D01*
X6789010Y35794303D01*
X6396370Y36187629D01*
X5883100Y36400757D01*
X5327339Y36401242D01*
X4813697Y36189010D01*
X4420371Y35796370D01*
X4207243Y35283100D01*
X4206758Y34727339D01*
X685000Y34727339D01*
X685000Y37315000D01*
X61315000Y37315000D01*
X61315000Y685000D01*
M02*
